<svg xmlns="http://www.w3.org/2000/svg"
shape-rendering="geometricPrecision"
width="4000" height="4000" viewBox="0 0 1024 1024">
  <metadata>null</metadata>

<path d="
M 46.346 598.36
C 52.857 598.166 61.228 597.233 67.365 599.899
C 77.423 604.269 82.737 616.447 76.151 625.953
C 75.004 627.609 73.58 629.162 71.965 630.372
C 64.904 635.667 55.309 634.633 47.008 634.394
C 46.457 633.918 46.474 632.742 46.461 631.989
C 46.425 629.836 46.478 627.644 46.547 625.497
C 46.834 616.5 45.563 607.318 46.346 598.36 Z
M 50.891 602.318
C 50.266 604.751 50.743 607.5 50.748 609.996
C 50.757 614.663 50.691 619.33 50.719 623.997
C 50.729 625.478 50.045 629.776 51.212 630.742
C 57.698 630.834 65.17 631.278 70.36 626.602
C 76.317 621.236 75.739 610.781 69.598 605.824
C 64.887 602.022 56.737 600.858 50.891 602.318 Z"
opacity="1" fill="rgb(6,6,6)" fill-rule="evenodd" />
<path d="
M 46.934 393.576
C 48.459 387.833 49.033 381.432 49.654 375.529
C 49.957 372.649 49.963 369.549 50.769 366.763
C 58.618 366.434 66.625 366.856 74.506 366.818
C 98.838 366.699 123.172 366.756 147.504 366.756
C 158.668 366.756 169.902 367.221 181.057 366.79
C 181.172 369.204 180.324 371.871 180.112 374.306
C 179.474 381.623 178.511 388.92 178.107 396.254
C 174.131 396.89 169.533 396.263 165.499 396.262
C 156.666 396.26 147.832 396.225 138.999 396.261
C 136.723 396.271 134.429 396.344 132.155 396.242
C 130.897 396.185 129.427 395.823 128.195 396.083
C 127.796 397.926 127.938 399.826 127.771 401.697
C 127.511 404.623 126.951 407.532 126.615 410.453
C 125.445 420.63 124.043 430.795 122.598 440.942
C 120.452 456.017 117.046 471.155 115.816 486.333
C 115.162 494.41 113.619 502.48 112.452 510.502
C 112.174 512.413 111.943 514.456 111.843 516.379
C 111.819 516.842 111.938 518.182 111.512 518.443
C 105.875 518.136 100.154 518.401 94.507 518.379
C 88.692 518.356 82.761 518.059 76.961 518.466
C 76.649 517.42 77.131 516.074 77.312 515.019
C 77.682 512.867 77.985 510.701 78.249 508.533
C 79.248 500.324 80.458 492.144 81.594 483.953
C 84.599 462.284 88.013 440.663 90.906 418.977
C 91.645 413.44 92.43 407.907 93.197 402.375
C 93.468 400.421 94.068 398.44 94.223 396.487
C 90.233 395.684 85.564 396.249 81.499 396.235
C 73.332 396.207 65.166 396.226 56.999 396.232
C 53.712 396.235 49.762 396.867 46.559 396.237
C 46.617 395.326 46.741 394.467 46.934 393.576 Z"
opacity="1" fill="rgb(0,0,1)" fill-rule="evenodd" />
<path d="
M 86.479 607.615
C 86.825 604.689 86.557 601.714 86.823 598.78
C 88.618 598.289 90.653 598.535 92.501 598.525
C 96.46 598.504 100.42 598.616 104.378 598.505
C 106.363 598.449 109.6 597.729 111.354 598.732
C 112.381 600.081 112.732 600.942 111.197 602.122
C 109.224 602.927 106.594 602.46 104.509 602.407
C 99.942 602.292 95.368 602.282 90.806 602.184
C 90.706 606.155 90.455 610.178 90.657 614.146
C 92.87 613.858 95.27 614.159 97.509 614.163
C 101.371 614.17 105.25 614.058 109.109 614.192
C 109.252 615.388 109.174 616.601 109.315 617.789
C 103.198 617.519 97.007 617.959 90.88 617.816
C 90.672 622.009 90.191 626.261 90.654 630.438
C 96.024 630.865 101.662 630.462 107.067 630.447
C 108.535 630.442 112.114 630 112.822 631.579
C 112.826 632.551 112.562 633.457 111.977 634.241
C 110.416 634.752 108.149 634.291 106.503 634.286
C 102.169 634.275 97.835 634.262 93.501 634.265
C 91.533 634.267 88.531 634.825 86.698 634.166
C 86.577 628.598 86.669 623.031 86.577 617.462
C 86.522 614.178 86.237 610.899 86.479 607.615 Z"
opacity="1" fill="rgb(8,9,9)" fill-rule="evenodd" />
<path d="
M 119.976 604.615
C 120.199 602.517 119.741 600.304 120.929 598.424
C 122.004 598.468 123.058 598.63 124.135 598.599
C 125.185 606.689 124.344 615.342 124.298 623.491
C 124.284 625.826 124.245 628.159 124.239 630.494
C 124.235 631.758 124.423 633.038 123.932 634.231
C 122.844 634.755 121.62 634.706 120.463 634.476
C 119.047 632.319 119.982 628.021 120.05 625.528
C 120.241 618.564 119.717 611.564 119.976 604.615 Z"
opacity="1" fill="rgb(6,8,5)" fill-rule="evenodd" />
<path d="
M 134.332 598.254
C 138.672 597.789 140.934 602.213 143.187 605.337
C 148.506 612.716 153.959 620.16 159.711 627.193
C 160.212 624.479 159.768 621.275 159.745 618.509
C 159.69 611.874 159.346 605.228 159.749 598.6
C 160.818 598.129 162.614 598.481 163.705 598.767
C 163.605 607.168 163.763 615.583 163.693 623.988
C 163.667 627.083 164.506 631.484 163.42 634.365
C 160.252 635.772 157.423 630.607 155.856 628.471
C 150.392 621.028 144.752 613.061 138.32 606.431
C 137.908 615.726 138.318 625.103 138.351 634.403
C 137.345 634.399 135.142 635.136 134.327 634.546
C 133.836 622.489 134.149 610.32 134.332 598.254 Z"
opacity="1" fill="rgb(6,6,7)" fill-rule="evenodd" />
<path d="
M 172.538 518.134
C 174.219 507.837 175.375 497.462 176.884 487.135
C 179.251 470.939 182.014 454.792 184.217 438.573
C 185.309 430.53 186.536 422.505 187.608 414.461
C 188.15 410.396 187.884 405.569 189.326 401.723
C 192.507 401.003 196.258 401.712 199.507 401.731
C 206.725 401.773 213.971 401.89 221.185 401.772
C 221.652 403.186 220.948 405.17 220.833 406.626
C 220.506 410.765 219.319 415.203 219.462 419.334
C 219.659 419.615 220.326 418.185 220.43 418.004
C 220.925 417.142 221.576 416.375 222.229 415.629
C 224.277 413.288 226.463 411 228.919 409.078
C 235.344 404.052 243.292 401.125 251.319 400.027
C 253.541 399.723 257.19 398.762 259.32 399.644
C 258.675 406.199 257.678 412.729 256.861 419.268
C 256.354 423.318 256.502 427.637 255.548 431.603
C 253.061 432.14 250.253 431.707 247.714 431.876
C 242.251 432.24 237.214 433.478 232.401 436.128
C 224.975 440.217 218.616 447.673 215.822 455.66
C 213.692 461.752 213.132 468.044 212.034 474.358
C 210.712 481.954 209.534 489.73 208.742 497.4
C 208.256 502.116 207.419 506.78 206.88 511.484
C 206.649 513.504 206.833 516.755 205.776 518.489
C 197.537 518.372 189.256 518.599 181.006 518.56
C 178.199 518.547 175.204 518.906 172.423 518.638
C 172.462 518.47 172.5 518.302 172.538 518.134 Z"
opacity="1" fill="rgb(0,0,0)" fill-rule="evenodd" />
<path d="
M 174.268 598.289
C 179.591 598.509 184.954 598.45 190.282 598.358
C 193.231 598.307 196.44 597.939 199.358 598.397
C 199.466 599.358 199.844 601.36 199.358 602.23
C 194.747 602.518 190.026 602.334 185.41 602.202
C 183.18 602.138 180.956 601.709 178.726 602.015
C 177.976 602.897 178.214 604.611 178.269 605.722
C 178.41 608.571 177.838 611.611 178.316 614.422
C 182.654 613.997 187.145 614.343 191.507 614.207
C 193.16 614.155 195.388 613.739 196.768 614.837
C 196.976 615.555 197.16 617.386 196.651 617.997
C 190.77 617.809 184.379 617.372 178.54 618.025
C 178.038 620.865 178.177 623.831 178.157 626.708
C 178.149 627.875 177.921 629.379 178.313 630.482
C 183.125 630.125 188.168 630.447 193.008 630.456
C 195.259 630.46 198.186 630.006 200.204 631.196
C 200.443 632.326 200.45 633.254 200.278 634.404
C 197.906 635.176 194.162 634.426 191.647 634.407
C 187.496 634.375 183.351 634.458 179.203 634.514
C 177.653 634.536 175.854 634.895 174.337 634.604
C 173.599 626.991 174.103 619.146 174.109 611.501
C 174.112 607.277 173.418 602.424 174.268 598.289 Z"
opacity="1" fill="rgb(7,8,9)" fill-rule="evenodd" />
<path d="
M 221.451 599.595
C 221.589 599.029 221.524 599.352 221.619 598.621
C 222.155 598.025 224.766 597.937 225.395 598.433
C 225.377 602.576 225.669 606.729 225.623 610.886
C 225.55 617.412 225.181 623.99 225.478 630.512
C 229.63 630.732 233.839 630.573 237.998 630.552
C 239.378 630.545 241.984 630.061 243.253 630.643
C 244.264 631.106 243.642 633.482 243.291 634.128
C 238.036 634.157 232.765 634.235 227.503 634.262
C 225.873 634.271 223.068 634.934 221.637 634.18
C 221.4 626.973 221.566 619.714 221.552 612.5
C 221.543 608.224 221.204 603.861 221.451 599.595 Z"
opacity="1" fill="rgb(4,3,5)" fill-rule="evenodd" />
<path d="
M 249.497 602.116
C 249.636 600.959 249.696 599.748 249.67 598.586
C 251.297 597.778 254.266 598.397 256.059 598.402
C 260.376 598.414 264.694 598.417 269.011 598.381
C 270.886 598.365 273.467 597.896 275.189 598.73
C 275.394 599.935 275.186 601.098 274.83 602.257
C 267.926 602.857 260.697 601.18 253.849 602.324
C 252.643 605.868 253.63 610.428 253.701 614.11
C 258.131 614.06 262.569 614.097 267.001 614.059
C 268.69 614.044 271.508 613.762 272.894 614.896
C 272.866 615.684 272.949 616.489 272.505 617.175
C 270.645 618.198 268.053 617.94 266.006 617.887
C 262.163 617.788 258.23 617.481 254.395 617.797
C 252.977 621.695 253.694 626.538 253.756 630.642
C 259.344 630.54 264.96 630.541 270.558 630.471
C 272.06 630.452 275.103 629.902 276.093 631.264
C 276.359 632.141 276.322 633.163 275.537 633.754
C 272.529 634.657 269.1 634.252 266.001 634.292
C 260.63 634.36 255.023 634.677 249.676 634.144
C 248.611 631.896 249.454 627.985 249.388 625.502
C 249.184 617.797 248.926 609.803 249.497 602.116 Z"
opacity="1" fill="rgb(7,8,8)" fill-rule="evenodd" />
<path d="
M 259.953 484.608
C 260.676 479.996 261.324 475.757 263.498 471.53
C 265.033 468.547 266.854 465.691 269.133 463.219
C 281.086 450.253 299.968 450.464 316.248 450.096
C 324.281 449.915 332.41 449.522 340.442 449.782
C 341.034 448.687 340.806 446.479 340.822 445.26
C 340.898 439.476 338.399 434.144 333.159 431.32
C 330.489 429.882 327.296 429.345 324.345 428.796
C 315.376 427.127 305.251 428.043 296.51 430.453
C 294.07 431.125 291.292 431.806 288.946 432.744
C 287.275 433.413 285.541 434.683 283.693 434.752
C 281.12 429.261 280.675 422.468 278.926 416.654
C 278.389 414.871 276.548 411.816 277.091 410.02
C 279.249 408.314 281.925 407.724 284.482 406.881
C 289.214 405.321 293.956 404.02 298.833 402.987
C 302.687 402.171 306.611 401.404 310.533 400.988
C 330.831 398.833 358.104 401.358 368.914 421.474
C 370.243 423.947 371.444 426.51 372.19 429.227
C 375.817 442.445 373.312 455.439 371.377 468.738
C 368.97 485.281 366.076 501.863 364.518 518.503
C 364.085 518.881 363.051 518.613 362.503 518.604
C 360.338 518.567 358.178 518.463 356.011 518.45
C 347.918 518.4 339.825 518.516 331.759 518.673
C 332.614 516.093 333.102 513.42 333.789 510.795
C 334.15 509.416 334.845 507.937 334.728 506.488
C 332.262 508.58 330.105 510.998 327.454 512.94
C 323.354 515.943 318.536 518.005 313.648 519.328
C 293.358 524.818 265.695 518.389 260.614 495.154
C 259.851 491.66 259.633 488.174 259.953 484.608 Z
M 292.92 480.568
C 292.555 482.142 292.662 483.838 292.691 485.445
C 292.932 498.938 310.078 499.41 319.761 496.71
C 326.716 494.771 333.091 490.307 335.91 483.479
C 337.599 479.389 338.06 474.153 338.451 469.774
C 337.149 469.303 335.38 469.621 334.004 469.616
C 331.004 469.604 328.005 469.642 325.005 469.639
C 315.804 469.63 303.114 467.607 296.154 475.096
C 294.66 476.704 293.798 478.589 292.92 480.568 Z"
opacity="1" fill="rgb(0,0,0)" fill-rule="evenodd" />
<path d="
M 283.501 601.106
C 283.616 600.156 283.75 599.323 284.134 598.44
C 285.117 598.117 286.235 598.408 287.224 598.651
C 288.139 600.452 287.334 604.441 287.313 606.491
C 287.247 612.825 287.258 619.157 287.304 625.491
C 287.318 627.492 287.32 629.493 287.335 631.493
C 287.34 632.29 287.463 633.323 286.881 633.945
C 285.997 634.287 284.971 634.117 284.078 633.897
C 283.538 633.008 283.647 631.788 283.611 630.781
C 283.533 628.641 283.395 626.516 283.386 624.368
C 283.356 616.684 282.898 608.764 283.501 601.106 Z"
opacity="1" fill="rgb(3,3,3)" fill-rule="evenodd" />
<path d="
M 294.905 613.584
C 296.989 602.806 306.976 596.196 317.653 598.608
C 320.483 599.247 324.366 600.683 326.211 603.053
C 326.404 603.851 326.625 605.348 326.011 606.009
C 325.092 606.118 324.187 606.339 323.288 606.037
C 321.075 604.173 319.74 602.883 316.798 602.197
C 312.537 601.203 307.283 602.191 303.986 605.126
C 296.9 611.433 297.73 624.056 306.113 628.785
C 308.21 629.968 310.67 630.597 313.061 630.771
C 315.92 630.978 318.757 630.054 321.169 628.527
C 322.137 627.914 322.957 626.991 324.037 626.601
C 325.178 627.185 326.608 628.019 326.401 629.427
C 325.21 631.392 322.012 632.266 320.006 633.189
C 307.675 638.866 292.378 627.017 294.905 613.584 Z"
opacity="1" fill="rgb(6,6,7)" fill-rule="evenodd" />
<path d="
M 333.489 622.12
C 334.173 616.911 333.775 611.261 333.808 606.005
C 333.824 603.555 333.323 600.711 334.43 598.453
C 335.531 598.232 336.562 598.313 337.657 598.549
C 338.281 599.422 337.942 601.695 337.947 602.796
C 337.963 606.382 337.093 611.224 338.197 614.654
C 341.899 614.206 345.935 614.534 349.674 614.522
C 352.542 614.512 355.531 614.154 358.377 614.338
C 358.994 613.343 358.613 611.159 358.621 610.003
C 358.645 606.327 358.669 602.644 358.591 598.969
C 359.65 598.145 361.358 598.03 362.591 598.539
C 363.687 602.258 363.195 606.654 362.983 610.5
C 362.708 615.499 362.916 620.528 362.891 625.532
C 362.879 628.064 363.721 632.595 362.22 634.751
C 361.044 635.062 359.946 634.656 358.782 634.604
C 357.896 630.944 358.678 626.275 358.722 622.508
C 358.737 621.267 359.007 619.621 358.595 618.438
C 354.079 618.017 349.477 618.051 344.942 617.994
C 342.82 617.967 340.288 617.556 338.271 618.304
C 337.378 623.574 338.264 629.028 337.773 634.349
C 336.36 634.448 335.036 634.587 333.624 634.345
C 332.864 630.564 333.286 625.971 333.489 622.12 Z"
opacity="1" fill="rgb(9,8,9)" fill-rule="evenodd" />
<path d="
M 368.441 600.077
C 368.577 599.634 368.673 599.273 368.894 598.861
C 370.392 597.583 374.594 598.416 376.511 598.418
C 383.339 598.423 390.165 598.358 396.992 598.287
C 397.166 599.51 397.06 600.909 397.052 602.153
C 392.998 602.615 388.858 602.11 384.79 602.407
C 384.157 604.653 384.759 607.73 384.786 610.07
C 384.852 615.542 384.808 621.018 384.784 626.491
C 384.774 628.927 385.87 633.764 383.024 634.936
C 382.331 635.021 381.775 635.008 381.15 634.685
C 379.777 632.633 380.689 627.92 380.687 625.502
C 380.681 617.862 380.693 610.217 380.724 602.579
C 380.101 602.091 378.308 602.414 377.51 602.422
C 374.747 602.45 371.326 603.034 368.682 602.119
C 368.389 601.419 368.378 600.825 368.441 600.077 Z"
opacity="1" fill="rgb(10,11,11)" fill-rule="evenodd" />
<path d="
M 392.967 459.104
C 394.428 450.159 396.393 441.505 400.928 433.519
C 404.234 427.698 408.362 422.1 413.293 417.538
C 426.331 405.471 445.075 399.384 462.636 399.238
C 478.242 399.109 495.336 403.91 505.614 416.327
C 507.833 419.009 509.816 421.913 511.617 424.888
C 512.037 425.58 513.303 427.042 513.191 427.844
C 511.062 429.333 508.297 430.222 505.926 431.272
C 501.56 433.206 497.323 435.272 493.145 437.582
C 491.344 438.577 489.54 439.605 487.813 440.724
C 487.198 441.122 486.306 442.011 485.558 442.003
C 478.319 426.599 456.837 424.806 443.384 432.615
C 431.496 439.515 426.069 453.359 427.14 466.579
C 427.63 472.635 428.775 477.868 432.687 482.725
C 435.769 486.551 439.808 489.224 444.415 490.877
C 449.379 492.659 455.625 493.009 460.784 491.89
C 466.334 490.686 471.241 487.866 475.452 484.122
C 477.2 482.568 478.514 479.841 480.473 478.67
C 482.84 479.717 484.999 481.941 487.155 483.415
C 490.786 485.898 494.754 487.972 498.301 490.552
C 499.665 491.544 501.145 492.371 502.546 493.31
C 502.914 493.556 503.674 493.865 503.701 494.32
C 503.285 495.652 502.208 496.843 501.407 497.971
C 499.81 500.222 498.185 502.43 496.265 504.421
C 486.384 514.667 472.457 519.752 458.5 520.929
C 435.068 522.907 410.677 513.419 398.856 492.291
C 396.376 487.859 394.876 482.806 393.789 477.871
C 392.463 471.847 392.312 465.225 392.967 459.104 Z"
opacity="1" fill="rgb(0,0,1)" fill-rule="evenodd" />
<path d="
M 394.969 633.055
C 396.718 627.904 400.087 623.259 402.333 618.307
C 405.261 611.849 407.361 604.359 411.505 598.544
C 415.142 596.518 416.61 602.04 417.646 604.382
C 420.896 611.73 423.893 619.252 427.485 626.441
C 428.316 628.104 429.081 629.796 429.907 631.463
C 430.369 632.395 431.164 633.236 430.87 634.331
C 429.561 634.809 428.47 634.999 427.074 634.961
C 426.401 634.007 426.144 632.788 425.651 631.734
C 424.674 629.644 423.183 627.432 422.63 625.201
C 416.23 625.659 409.728 625.041 403.317 625.172
C 402.583 625.665 402.308 626.853 401.906 627.626
C 400.721 629.907 399.805 632.743 398.163 634.728
C 397.154 634.983 396.07 634.687 395.048 634.63
C 394.678 634.036 394.84 633.728 394.969 633.055 Z
M 404.783 621.285
C 410.069 621.968 415.713 620.655 420.98 621.547
C 420.581 619.645 419.126 617.653 418.401 615.817
C 416.719 611.554 415.355 606.898 413.38 602.803
C 409.988 608.658 407.952 615.304 404.783 621.285 Z"
opacity="1" fill="rgb(4,5,6)" fill-rule="evenodd" />
<path d="
M 427.934 599.1
C 427.944 598.924 427.954 598.748 427.963 598.573
C 429.518 597.524 432.662 598.276 434.513 598.343
C 439.828 598.534 445.194 598.451 450.512 598.345
C 452.576 598.304 455.508 597.753 456.982 599.555
C 456.98 600.539 456.907 601.454 456.336 602.293
C 452.399 602.733 448.307 602.012 444.339 602.329
C 444.275 609.879 444.273 617.439 444.231 624.994
C 444.215 627.751 445.108 632.263 443.71 634.712
C 442.887 635.088 441.664 634.965 440.846 634.622
C 439.332 632.711 440.204 628.352 440.192 626.005
C 440.151 618.075 440.113 610.109 440.2 602.185
C 436.29 602.251 432.03 602.334 428.143 601.928
C 427.916 600.978 427.826 600.075 427.934 599.1 Z"
opacity="1" fill="rgb(10,11,11)" fill-rule="evenodd" />
<path d="
M 461.972 607.119
C 462.283 604.354 462.165 601.544 462.36 598.77
C 463.554 598.369 465.014 598.537 466.25 598.623
C 466.049 603.866 466.4 609.159 466.11 614.411
C 466.533 614.959 470.255 614.478 471.087 614.469
C 476.294 614.411 481.61 614.095 486.807 614.325
C 486.978 610.994 486.907 607.592 486.896 604.255
C 486.89 602.484 486.581 600.298 487.298 598.656
C 488.666 598.556 489.921 598.556 491.286 598.685
C 491.747 599.684 491.626 601.433 491.628 602.54
C 491.633 605.056 491.661 607.556 491.46 610.064
C 491.022 615.521 491.337 621.023 491.323 626.489
C 491.316 629.047 491.617 631.844 491.016 634.342
C 489.779 634.896 488.087 634.637 486.766 634.607
C 486.667 629.391 487.578 623.568 486.63 618.426
C 479.912 618.039 473.04 618.037 466.322 618.365
C 465.536 621.978 466.213 626.229 466.157 629.927
C 466.137 631.227 466.311 633.363 465.765 634.539
C 464.536 634.524 463.275 634.386 462.051 634.268
C 461.589 630.414 461.891 626.381 461.883 622.5
C 461.873 617.403 461.612 612.203 461.972 607.119 Z"
opacity="1" fill="rgb(7,8,8)" fill-rule="evenodd" />
<path d="
M 500.801 598.754
C 502.162 598.5 503.648 598.404 505.003 598.722
C 505.272 609.213 505.997 620.04 505.285 630.557
C 511.128 630.028 517.894 629.862 523.718 630.575
C 524.211 631.497 524.19 633.347 523.811 634.325
C 518.981 634.616 514.128 634.522 509.29 634.59
C 506.539 634.628 503.456 635.039 500.741 634.674
C 500.633 622.727 500.482 610.697 500.801 598.754 Z"
opacity="1" fill="rgb(12,12,12)" fill-rule="evenodd" />
<path d="
M 516.011 517.605
C 520.827 490.717 523.584 463.519 527.401 436.477
C 531.154 409.89 535.517 383.364 538.924 356.735
C 542.519 356.025 546.823 356.841 550.502 356.849
C 557.546 356.865 564.639 356.472 571.672 356.663
C 572.031 357.186 571.757 358.047 571.666 358.655
C 571.441 360.154 571.312 361.681 571.031 363.169
C 570.021 368.523 569.657 374.1 568.902 379.494
C 566.693 395.273 564.596 411.076 562.565 426.877
C 561.943 431.719 561.221 436.555 560.572 441.396
C 560.316 443.306 559.485 445.15 559.709 447.102
C 560.133 447.273 560.958 446.075 561.236 445.768
C 562.647 444.214 564.384 442.839 565.97 441.462
C 572.911 435.434 580.038 429.59 586.844 423.408
C 592.211 418.533 597.948 413.924 603.079 408.806
C 604.698 407.191 606.322 405.573 607.912 403.931
C 608.627 403.193 609.417 401.999 610.421 401.641
C 611.544 401.241 613.168 401.477 614.367 401.449
C 617.253 401.38 620.128 401.441 623.012 401.499
C 629.166 401.622 635.352 401.445 641.51 401.428
C 644.413 401.42 647.575 401.007 650.443 401.505
C 650.152 403.17 648.049 404.384 646.866 405.452
C 643.56 408.44 640.444 411.612 637.185 414.646
C 624.724 426.246 611.53 437.207 599.701 449.469
C 599.226 450.59 601.328 453.064 601.954 454.161
C 604.337 458.332 606.899 462.424 609.158 466.664
C 615.602 478.761 622.145 490.801 628.556 502.916
C 630.373 506.35 632.057 509.867 633.956 513.256
C 635.049 515.206 636.447 517.194 637.293 519.246
C 631.587 518.52 625.753 518.766 619.999 518.762
C 613.38 518.757 606.726 518.552 600.115 518.822
C 599.16 518.096 598.557 516.045 598.024 514.955
C 596.523 511.888 594.807 508.918 593.189 505.911
C 587.147 494.685 581.622 483.147 575.47 471.993
C 573.243 473.345 571.385 475.589 569.453 477.336
C 566.007 480.453 562.377 483.344 559.052 486.596
C 556.94 488.662 554.077 490.568 552.534 493.116
C 551.481 498.508 550.812 504.44 550.365 509.922
C 550.218 511.73 549.949 513.519 549.829 515.321
C 549.759 516.381 549.894 517.777 549.399 518.744
C 542.951 518.945 536.453 518.726 529.999 518.712
C 525.289 518.702 520.503 518.954 515.809 518.706
C 515.949 517.981 515.882 518.348 516.011 517.605 Z"
opacity="1" fill="rgb(0,0,1)" fill-rule="evenodd" />
<path d="
M 529.184 598.75
C 534.719 598.354 540.252 598.574 545.798 598.391
C 548.25 598.31 551.744 597.648 554.032 598.652
C 554.472 600.033 554.262 600.999 553.787 602.343
C 552.291 602.676 550.534 602.37 549.006 602.342
C 545.675 602.281 542.337 602.299 539.005 602.319
C 537.59 602.327 534.828 601.777 533.697 602.69
C 533.302 606.293 533.164 610.435 533.669 614.029
C 534.652 614.747 536.789 614.416 538.01 614.38
C 541.345 614.282 544.674 614.038 548.006 613.926
C 549.852 613.864 551.403 613.664 552.771 615.087
C 553.029 616.08 552.62 617.142 552.067 617.971
C 550.223 618.45 548.089 618.202 546.199 618.182
C 542.107 618.14 538.023 617.89 533.933 617.992
C 533.529 619.35 533.749 620.977 533.731 622.387
C 533.697 625.151 533.759 627.966 533.631 630.719
C 533.978 631.018 534.869 630.774 535.352 630.77
C 536.727 630.762 538.101 630.759 539.475 630.743
C 542.836 630.704 546.198 630.693 549.557 630.56
C 552.043 630.462 554.336 630.113 556.448 631.698
C 556.225 632.717 555.921 633.519 555.216 634.289
C 553.415 634.736 551.354 634.405 549.509 634.375
C 546.01 634.319 542.506 634.288 539.007 634.283
C 535.925 634.28 532.498 634.848 529.556 633.842
C 529.004 633.12 529.335 631.877 529.335 631.006
C 529.337 628.836 529.371 626.669 529.405 624.499
C 529.54 615.966 529.765 607.267 529.184 598.75 Z"
opacity="1" fill="rgb(7,8,8)" fill-rule="evenodd" />
<path d="
M 557.302 599.948
C 557.58 599.432 557.861 599.022 558.291 598.621
C 560.682 597.791 563.982 598.434 566.51 598.439
C 570.51 598.447 574.51 598.439 578.511 598.438
C 580.582 598.437 582.869 598.138 584.902 598.541
C 585.582 599.144 587.359 600.819 586.865 601.793
C 582.878 603.195 578.709 601.899 574.619 602.526
C 574.146 605.085 574.631 607.98 574.625 610.591
C 574.611 615.912 574.43 621.241 574.392 626.567
C 574.377 628.69 575.497 633.843 573.281 635.05
C 572.434 635.085 571.503 634.8 570.807 634.338
C 570.33 633.237 570.568 631.851 570.57 630.674
C 570.574 628.58 570.393 626.499 570.411 624.405
C 570.475 617.195 569.781 609.648 570.495 602.486
C 567.219 602.415 563.83 602.575 560.57 602.239
C 559.335 602.112 557.734 601.913 557.089 600.735
C 557.16 600.473 557.231 600.211 557.302 599.948 Z"
opacity="1" fill="rgb(9,9,10)" fill-rule="evenodd" />
<path d="
M 592 601.098
C 592.119 600.337 592.312 599.632 592.546 598.899
C 593.589 598.561 594.506 598.838 595.568 598.797
C 595.901 599.383 595.747 600.334 595.771 601.005
C 595.839 602.834 595.831 604.667 595.84 606.497
C 595.875 612.997 595.813 619.495 595.825 625.993
C 595.829 628.374 596.645 632.603 595.172 634.622
C 594.291 634.99 593.076 634.707 592.159 634.561
C 591.619 633.609 591.807 632.436 591.804 631.376
C 591.799 629.266 591.867 627.156 591.92 625.047
C 592.115 617.132 591.411 608.964 592 601.098 Z"
opacity="1" fill="rgb(7,7,7)" fill-rule="evenodd" />
<path d="
M 606.001 607.619
C 606.31 604.71 606.043 601.736 606.265 598.811
C 607.11 598.068 608.743 598.517 609.798 598.619
C 610.102 603.592 609.855 608.566 609.822 613.549
C 609.809 615.453 610.198 617.347 610.112 619.224
C 610.895 619.195 611.669 617.936 612.175 617.377
C 613.593 615.811 615.076 614.305 616.487 612.73
C 619.313 609.573 622.375 606.638 625.317 603.593
C 626.848 602.007 628.464 599.788 630.441 598.757
C 631.58 598.164 632.92 598.288 634.155 598.122
C 634.503 600.391 632.15 601.666 630.708 603.026
C 627.041 606.485 623.781 610.382 620.372 614.07
C 620.793 615.691 623.049 617.539 624.134 618.87
C 626.865 622.221 629.314 625.788 631.985 629.186
C 632.881 630.327 636.203 633.191 635.778 634.723
C 634.632 634.883 633.01 635.224 631.916 634.66
C 630.388 633.871 629.015 631.432 628.002 630.075
C 625.551 626.796 622.999 623.586 620.511 620.335
C 619.748 619.34 618.988 617.404 618.059 616.72
C 615.948 618.713 613.871 620.83 612.042 623.087
C 611.321 623.976 610.193 624.86 609.935 626.022
C 609.37 628.577 610.654 631.885 609.406 634.251
C 608.487 634.778 606.903 635.007 605.88 634.686
C 605.057 632.269 605.709 628.56 605.728 626.003
C 605.775 619.888 605.698 613.726 606.001 607.619 Z"
opacity="1" fill="rgb(7,8,8)" fill-rule="evenodd" />
<path d="
M 637.008 620.119
C 636.983 619.486 636.968 619.82 637.074 619.118
C 638.092 618.3 639.762 618.391 641.008 618.348
C 644.151 618.241 649.056 617.257 651.952 618.656
C 652.329 619.353 652.893 621.241 651.995 621.803
C 650.607 622.156 649.01 621.947 647.585 621.954
C 644.276 621.97 640.921 621.789 637.614 621.949
C 637.187 621.368 637.081 620.832 637.008 620.119 Z"
opacity="1" fill="rgb(6,10,9)" fill-rule="evenodd" />
<path d="
M 659.91 598.85
C 662.063 598.052 664.741 598.431 667.005 598.429
C 673.769 598.422 680.401 598.394 685.956 602.877
C 693.665 609.098 694.389 622.437 686.985 629.261
C 681.461 634.354 674.325 634.582 667.301 634.69
C 664.884 634.727 662.145 635.065 659.763 634.771
C 659.763 626.684 659.605 618.592 659.662 610.501
C 659.689 606.759 659.119 602.514 659.91 598.85 Z
M 663.918 603.069
C 663.544 605.471 663.795 607.98 663.787 610.403
C 663.771 614.809 663.769 619.16 664.097 623.55
C 664.251 625.608 663.461 629.108 664.412 630.93
C 671.725 630.318 679.765 631.867 685.242 625.661
C 689.765 620.537 689.003 610.843 683.987 606.329
C 680.221 602.94 675.413 602.412 670.617 602.09
C 668.486 601.948 666.201 601.701 664.16 602.44
C 664.08 602.65 663.999 602.859 663.918 603.069 Z"
opacity="1" fill="rgb(4,5,5)" fill-rule="evenodd" />
<path d="
M 662.935 445.114
C 665.73 425.715 668.585 406.302 671.478 386.902
C 672.587 379.465 673.124 371.917 674.508 364.524
C 675.218 363.711 676.317 363.874 677.35 363.875
C 679.777 363.875 682.278 363.91 684.693 364.141
C 685.292 366.892 683.836 370.766 683.491 373.552
C 682.516 381.421 681.465 389.305 680.039 397.106
C 678.724 404.295 677.83 411.594 676.798 418.828
C 675.272 429.527 673.026 440.189 673.44 451.056
C 674.102 468.388 682.631 486.062 697.52 495.495
C 702.068 498.377 706.902 500.475 712.108 501.841
C 718.418 503.497 724.896 504.394 731.434 504.12
C 734.388 503.996 737.269 503.326 740.203 503.15
C 740.351 507.282 739.041 512.236 738.223 516.289
C 732.122 517.653 725.372 517.26 719.209 516.646
C 713.052 516.032 706.971 514.57 701.219 512.272
C 695.05 509.808 688.95 506.316 683.899 501.979
C 667.592 487.978 661.275 466.049 662.935 445.114 Z"
opacity="1" fill="rgb(158,98,173)" fill-rule="evenodd" />
<path d="
M 678.921 441.608
C 682.013 423.789 684.76 405.769 687.186 387.834
C 687.959 382.114 688.743 376.391 689.672 370.693
C 690 368.685 689.897 365.821 690.946 364.082
C 694.166 363.636 697.867 363.627 701.101 363.925
C 701.401 364.318 700.928 365.707 700.841 366.152
C 700.446 368.173 700.126 370.206 699.825 372.243
C 698.556 380.837 697.293 389.425 695.942 398.007
C 694.921 404.496 694.061 411.009 693.084 417.504
C 690.549 434.349 686.882 451.788 696.419 467.255
C 697.762 469.433 699.221 471.538 700.984 473.399
C 703.433 475.986 706.377 478.155 709.439 479.96
C 713.206 482.18 717.501 483.843 721.788 484.718
C 728.947 486.18 735.49 484.816 742.575 484.112
C 743.181 485.054 742.61 486.706 742.411 487.768
C 741.84 490.82 741.873 494.22 740.92 497.167
C 739.624 497.748 738.006 497.751 736.616 497.976
C 732.662 498.614 728.674 498.593 724.69 498.379
C 719.607 498.107 714.603 497.077 709.837 495.282
C 688.091 487.094 677.037 463.941 678.921 441.608 Z"
opacity="1" fill="rgb(163,103,177)" fill-rule="evenodd" />
<path d="
M 694.886 633.031
C 695.888 629.88 697.649 626.81 699.041 623.813
C 701.813 617.845 704.595 611.826 707.212 605.786
C 708.254 603.379 709.678 597.55 712.997 597.999
C 715.443 599.443 716.804 603.445 717.917 605.944
C 720.836 612.498 723.851 619.059 726.659 625.656
C 727.413 627.427 728.184 629.192 729.022 630.925
C 729.502 631.919 730.311 633.085 730.206 634.234
C 728.99 634.765 727.823 635.016 726.5 635.06
C 724.929 631.815 723.886 628.362 722.179 625.171
C 717.924 624.765 713.622 625.178 709.346 625.22
C 707.172 625.241 704.62 624.805 702.513 625.32
C 700.409 627.899 699.991 632.626 697.234 634.566
C 696.387 634.835 695.586 634.875 694.718 634.705
C 694.693 634.087 694.743 633.634 694.886 633.031 Z
M 704.465 620.579
C 704.171 621.232 704.24 620.916 704.197 621.51
C 709.491 621.549 715.183 620.781 720.432 621.391
C 720.108 619.693 719.027 617.872 718.321 616.279
C 717.088 613.491 716.002 610.632 714.742 607.86
C 714.303 606.892 713.49 603.912 712.544 603.628
C 709.371 609.06 707.217 614.932 704.465 620.579 Z"
opacity="1" fill="rgb(4,5,5)" fill-rule="evenodd" />
<path d="
M 695.456 439.109
C 699.149 414.162 702.46 389.075 706.678 364.207
C 709.98 363.95 713.799 363.709 717.076 364.221
C 717.027 365.977 716.502 367.708 716.253 369.445
C 715.614 373.891 714.953 378.329 714.311 382.772
C 712.495 395.329 710.584 407.886 708.474 420.398
C 707.025 428.992 704.714 437.738 706.07 446.496
C 706.83 451.407 708.619 456.181 711.753 460.076
C 719.547 469.764 734.144 471.853 745.228 466.896
C 745.523 467.451 744.966 468.868 744.9 469.494
C 744.608 472.254 744.358 475.097 743.818 477.818
C 743.009 478.453 741.523 478.546 740.539 478.79
C 736.537 479.783 732.552 480.024 728.434 479.815
C 719.871 479.38 710.936 475.752 705.016 469.43
C 697.657 461.571 694.621 449.674 695.456 439.109 Z"
opacity="1" fill="rgb(167,106,180)" fill-rule="evenodd" />
<path d="
M 728.262 598.27
C 734.332 598.05 740.436 598.334 746.512 598.337
C 749.411 598.339 753.19 597.754 755.933 598.775
C 756.194 599.497 756.121 601.918 755.49 602.402
C 752.999 602.317 750.501 602.374 748.008 602.365
C 746.812 602.36 745.343 602.164 744.228 602.641
C 743.815 605.922 744.091 609.324 744.096 612.626
C 744.101 616.485 743.884 620.337 743.898 624.204
C 743.908 627.231 744.655 631.497 743.414 634.302
C 742.651 635.144 741.337 635.116 740.392 634.567
C 738.977 632.792 739.854 628.22 739.857 626.004
C 739.867 618.21 739.503 610.274 739.965 602.5
C 736.2 602.146 732.153 601.974 728.377 602.106
C 728.011 600.925 728.264 599.496 728.262 598.27 Z"
opacity="1" fill="rgb(8,9,9)" fill-rule="evenodd" />
<path d="
M 735.927 419.03
C 738.891 415.005 742.585 411.421 745.934 407.711
C 753.042 399.837 760.152 391.958 767.282 384.1
C 772.542 378.303 777.621 372.326 782.744 366.409
C 784.794 364.041 786.66 361.339 789.043 359.306
C 790.393 359.557 791.348 362.168 792.079 363.26
C 794.602 367.029 796.98 370.897 799.417 374.721
C 806.115 385.228 812.767 395.763 819.586 406.193
C 822.44 410.558 824.917 415.708 828.209 419.725
C 825.546 419.458 822.683 419.74 819.998 419.74
C 814.792 419.74 809.578 419.68 804.377 419.875
C 803.802 420.907 803.81 422.347 803.642 423.515
C 803.341 425.608 802.987 427.695 802.711 429.794
C 801.709 437.422 800.731 445.061 799.595 452.67
C 798.442 460.397 797.278 468.295 794.552 475.656
C 788.927 490.846 777.675 503.837 762.86 510.656
C 758.882 512.487 754.694 513.803 750.418 514.734
C 748.678 515.113 746.843 515.797 745.052 515.725
C 745.761 508.61 747.167 501.537 748.203 494.461
C 750.837 476.453 753.681 458.478 756.321 440.471
C 757.321 433.646 758.773 426.775 759.395 419.911
C 758.416 419.156 755.258 419.763 753.999 419.759
C 749.561 419.747 745.118 419.66 740.681 419.715
C 739.394 419.731 736.689 420.252 735.638 419.494
C 735.735 419.34 735.831 419.185 735.927 419.03 Z"
opacity="1" fill="rgb(171,109,181)" fill-rule="evenodd" />
<path d="
M 761.893 599.58
C 761.934 599.386 761.976 599.192 762.017 598.998
C 763.567 597.81 766.139 598.292 768.016 598.298
C 772.662 598.314 777.311 598.357 781.956 598.298
C 783.285 598.281 787.65 597.557 787.357 599.819
C 787.167 600.732 786.808 601.451 786.252 602.194
C 784.803 602.725 782.767 602.417 781.244 602.38
C 777.988 602.302 774.728 602.253 771.472 602.231
C 769.99 602.221 767.21 601.633 766.065 602.627
C 765.502 606.443 766.417 610.361 766.146 614.173
C 772.251 615.146 779.025 612.635 784.999 614.483
C 784.962 615.436 784.919 616.386 784.757 617.327
C 778.907 618.925 772.463 617.096 766.535 618.036
C 765.264 621.726 765.748 626.648 765.943 630.499
C 767.458 631.013 769.876 630.592 771.499 630.573
C 774.832 630.533 778.166 630.546 781.499 630.546
C 783.776 630.546 786.206 630.347 788.393 631.093
C 788.392 632.194 788.52 633.239 788.316 634.334
C 784.259 633.965 780.072 634.343 776.003 634.374
C 771.33 634.409 766.592 634.114 761.929 634.442
C 761.182 629.694 761.822 624.313 761.834 619.502
C 761.85 612.924 761.288 606.132 761.893 599.58 Z"
opacity="1" fill="rgb(6,8,8)" fill-rule="evenodd" />
<path d="
M 795.434 598.868
C 796.464 598.349 797.892 598.248 799.035 598.28
C 806.71 607.44 812.609 618.2 820.602 627.059
C 820.857 620.379 820.902 613.693 820.922 607
C 820.93 604.34 820.277 600.627 821.744 598.284
C 822.821 598.08 823.961 598.018 824.952 598.564
C 826.124 600.819 825.313 605.001 825.274 607.493
C 825.181 613.495 825.271 619.492 825.266 625.494
C 825.263 628.064 825.887 631.514 824.864 633.912
C 824.283 634.571 822.705 634.68 821.899 634.411
C 815.97 627.412 810.482 619.996 805.088 612.583
C 803.774 610.777 802.191 609.171 800.878 607.38
C 800.709 607.15 799.727 605.726 799.702 605.739
C 799.222 605.999 799.61 606.829 799.617 607.375
C 799.638 609.108 799.624 610.841 799.607 612.578
C 799.556 617.759 799.276 622.942 799.366 628.129
C 799.392 629.674 800.094 633.208 799.162 634.47
C 798.003 634.549 797.01 634.55 795.848 634.398
C 795.215 633.506 795.343 632.241 795.316 631.183
C 795.258 628.959 795.256 626.731 795.255 624.506
C 795.253 615.987 795.042 607.377 795.434 598.868 Z"
opacity="1" fill="rgb(5,5,6)" fill-rule="evenodd" />
<path d="
M 821.417 559.078
C 822.237 555.8 822.454 552.327 822.948 548.987
C 823.865 542.785 824.868 536.597 825.907 530.414
C 829.521 508.907 832.906 487.384 836.394 465.859
C 838.663 451.856 841.058 437.87 843.366 423.874
C 844.585 416.481 846.44 408.72 846.717 401.229
C 849.427 400.938 852.274 401.25 855.005 401.253
C 860.505 401.26 866.005 401.193 871.505 401.255
C 873.504 401.278 875.501 401.291 877.499 401.301
C 878.092 401.304 879.354 401.087 879.769 401.514
C 879.69 406.551 877.873 411.148 877.169 416.051
C 877.597 416.508 878.302 415.391 878.563 415.065
C 879.822 413.492 881.225 412.236 882.739 410.919
C 886.492 407.655 890.775 405.001 895.449 403.257
C 909.521 398.009 924.922 398.434 938.448 405.023
C 942.448 406.972 946.451 409.33 949.71 412.388
C 959.785 421.839 964.504 435.707 964.941 449.256
C 965.684 472.254 955.909 494.553 937.766 508.879
C 923.751 519.946 903.485 524.225 886.198 519.518
C 880.189 517.883 874.543 514.807 869.614 511.043
C 867.677 509.563 866.447 507.775 865.203 505.719
C 864.838 505.117 864.022 503.572 863.698 504.683
C 863.793 511.966 862.074 519.595 860.799 526.742
C 859.726 532.755 858.987 538.824 857.993 544.851
C 857.333 548.847 856.581 552.803 856.205 556.841
C 856.089 558.09 855.688 559.392 855.771 560.648
C 847.426 561.205 838.865 560.771 830.503 560.696
C 828.333 560.676 826.159 560.653 823.99 560.7
C 823.093 560.72 821.992 561.039 821.168 560.649
C 821.268 560.125 821.335 559.604 821.417 559.078 Z
M 870.972 461.615
C 870.332 470.795 872.828 480.588 879.717 487.077
C 888.051 494.928 902.939 493.941 912.294 488.648
C 923.537 482.286 929.497 470.277 930.359 457.649
C 930.705 452.581 930.353 447.283 928.431 442.53
C 922.033 426.713 902.594 424.774 888.835 431.723
C 878.201 437.095 871.771 450.164 870.972 461.615 Z"
opacity="1" fill="rgb(165,104,180)" fill-rule="evenodd" />
<path d="
M 835.891 599.592
C 836.009 598.971 835.947 599.317 836.072 598.555
C 838.049 597.784 841.372 598.449 843.507 598.444
C 847.32 598.436 851.808 597.774 855.521 598.794
C 860.237 600.09 863.894 604.747 862.692 609.721
C 861.948 612.8 859.288 613.9 857.543 616.07
C 858.871 616.424 860.161 616.514 861.299 617.387
C 865.582 620.669 866.256 628.538 861.305 631.489
C 859.753 632.414 858.031 633.527 856.292 634.049
C 853.977 634.744 851.17 634.402 848.787 634.375
C 844.5 634.327 840.203 634.274 835.921 634.494
C 835.48 633.632 835.629 632.462 835.627 631.506
C 835.623 629.172 835.599 626.838 835.616 624.504
C 835.658 619.005 835.745 613.506 835.79 608.007
C 835.813 605.23 835.564 602.352 835.891 599.592 Z
M 839.491 624.621
C 839.334 626.612 839.443 628.576 839.431 630.56
C 843.145 630.395 846.969 630.598 850.702 630.571
C 853.428 630.552 856.148 630.623 858.476 628.949
C 862.319 626.187 859.984 620.922 856.697 618.925
C 854.535 617.612 852.22 617.798 849.784 617.794
C 846.48 617.789 843.158 617.739 839.858 617.908
C 839.581 620.105 839.947 622.47 839.491 624.621 Z
M 839.785 602.298
C 839.143 605.704 839.182 610.648 839.764 614.074
C 843.685 614.102 847.58 614.317 851.496 613.989
C 853.402 613.829 855.067 613.776 856.659 612.573
C 860.236 609.868 858.421 604.803 854.982 602.945
C 853.48 602.133 851.488 602.236 849.832 602.223
C 846.476 602.197 843.136 602.139 839.785 602.298 Z"
opacity="1" fill="rgb(8,8,9)" fill-rule="evenodd" />
<path d="
M 867.913 632.543
C 870.338 625.867 874.024 619.678 876.834 613.158
C 878.915 608.33 880.423 602.471 883.579 598.229
C 884.639 597.716 886.291 598.001 887.12 598.858
C 888.646 600.95 889.278 603.917 890.458 606.247
C 893.896 613.035 897.071 619.956 900.086 626.935
C 900.817 628.626 901.733 630.524 902.808 632.021
C 903.22 632.595 904.257 633.28 904.379 633.942
C 898.444 638.111 897.831 628.065 895.073 625.342
C 890.719 625.213 886.363 625.191 882.006 625.175
C 879.849 625.167 877.559 624.922 875.423 625.209
C 873.968 627.329 873.045 629.84 871.819 632.101
C 871.407 632.86 871.074 634.324 870.362 634.799
C 869.496 634.917 868.627 634.833 867.763 634.726
C 867.544 633.924 867.69 633.336 867.913 632.543 Z
M 877.452 620.56
C 877.122 621.385 877.013 621.072 877.34 621.548
C 882.636 621.765 888.514 620.734 893.724 621.647
C 893.501 619.966 892.023 618.06 891.349 616.498
C 890.018 613.419 888.567 610.408 887.109 607.388
C 886.437 605.998 885.935 604.317 884.934 603.133
C 884.582 604.928 883.578 606.492 882.823 608.149
C 881.429 611.204 880.04 614.346 878.822 617.473
C 878.397 618.527 877.948 619.537 877.452 620.56 Z"
opacity="1" fill="rgb(3,3,4)" fill-rule="evenodd" />
<path d="
M 908.512 600.613
C 908.534 599.95 908.565 599.291 908.591 598.628
C 909.317 598.068 910.563 598.033 911.467 597.913
C 913.422 599.783 915.042 602.184 916.695 604.331
C 920.593 609.393 924.305 614.591 928.14 619.705
C 929.55 621.585 931.099 623.406 932.439 625.333
C 932.781 625.826 933.294 627.284 933.861 627.436
C 934.567 625.671 933.914 622.481 933.987 620.544
C 934.26 613.316 933.539 605.88 934.472 598.703
C 935.604 598.237 937.173 598.164 938.204 598.902
C 939.324 601.902 938.58 605.772 938.473 608.908
C 938.29 614.274 938.457 619.64 938.449 625.006
C 938.445 627.661 939.192 631.85 937.818 634.201
C 936.89 634.823 935.64 635.099 934.641 634.478
C 929.708 628.538 925.176 622.011 920.601 615.778
C 918.282 612.62 916.072 608.397 912.903 606.026
C 912.889 612.352 912.671 618.662 912.776 624.997
C 912.824 627.929 913.572 631.648 912.614 634.458
C 911.736 635.031 910.358 634.597 909.395 634.461
C 908.149 631.31 908.808 626.852 908.789 623.511
C 908.744 615.879 908.573 608.238 908.512 600.613 Z"
opacity="1" fill="rgb(5,4,4)" fill-rule="evenodd" />
<path d="
M 948.503 623.12
C 949.451 615.012 948.271 606.713 948.781 598.582
C 950.091 598.386 951.345 598.324 952.667 598.321
C 953.067 605.61 952.269 612.911 952.708 620.191
C 952.878 620.328 953.922 618.846 954.101 618.651
C 955.841 616.758 957.497 614.799 959.216 612.888
C 962.503 609.233 966.017 605.762 969.395 602.19
C 970.451 601.074 972.014 598.569 973.493 598.082
C 974.473 597.76 976.195 597.99 977.223 598.056
C 977.415 600.135 973.443 603.215 972.144 604.65
C 969.373 607.885 966.337 611.039 963.317 614.022
C 963.121 614.522 963.912 615.108 964.24 615.542
C 965.069 616.64 965.96 617.702 966.81 618.787
C 970.519 623.517 974.069 628.315 977.935 632.911
C 978.156 633.544 978.297 634.13 978.128 634.794
C 975.629 635.595 973.242 633.693 971.887 631.914
C 968.2 627.072 964.53 622.261 960.493 617.7
C 957.892 619.335 956.163 621.565 954.362 623.994
C 953.754 624.815 952.817 625.597 952.473 626.577
C 951.587 629.098 952.547 632.161 951.783 634.803
C 950.824 634.996 949.845 634.63 948.899 634.515
C 948.431 633.386 948.607 631.947 948.588 630.745
C 948.548 628.207 948.493 625.658 948.503 623.12 Z"
opacity="1" fill="rgb(6,6,5)" fill-rule="evenodd" />

</svg>