<svg xmlns="http://www.w3.org/2000/svg"
shape-rendering="geometricPrecision"
width="4000" height="4000" viewBox="0 0 1024 1024">
  <metadata>null</metadata>

<path d="
M 324.443 440.091
C 325.254 436.887 325.415 433.376 325.849 430.098
C 326.583 424.549 327.366 419.005 328.088 413.456
C 328.463 410.577 328.49 407.529 329.227 404.719
C 369.635 405.091 410.09 404.542 450.505 404.513
C 468.181 404.5 486.048 403.836 503.7 404.666
C 502.676 417.571 500.452 430.435 499.226 443.324
C 495.377 443.631 491.364 443.288 487.5 443.286
C 479.499 443.28 471.498 443.258 463.497 443.248
C 456.498 443.24 449.498 443.251 442.498 443.234
C 439.535 443.226 436.361 443.571 433.429 443.288
C 433.256 447.301 432.374 451.378 431.848 455.364
C 430.744 463.742 429.52 472.114 428.406 480.484
C 424.45 510.223 419.821 539.879 416.127 569.637
C 414.926 579.312 413.607 589 412.153 598.649
C 411.659 601.929 411.168 605.209 410.747 608.499
C 410.595 609.685 410.134 610.96 410.267 612.156
C 399.515 612.151 388.757 612.125 378.003 612.128
C 374.835 612.129 371.667 612.115 368.5 612.132
C 367.104 612.14 365.3 612.446 363.971 611.995
C 368.003 586.207 371.537 560.225 374.793 534.328
C 378.609 503.978 383.86 473.797 387.431 443.414
C 381.072 442.733 374.395 443.249 367.997 443.252
C 353.385 443.26 338.69 443.707 324.088 443.303
C 324.113 442.209 324.237 441.166 324.443 440.091 Z"
opacity="1" fill="rgb(0,0,0)" fill-rule="evenodd" />
<path d="
M 507.436 515.607
C 508.235 510.335 508.642 504.986 509.409 499.699
C 512.619 477.573 515.895 455.46 519.202 433.349
C 520.633 423.785 521.286 413.842 523.545 404.44
C 524.951 403.845 526.89 404.136 528.41 404.145
C 531.436 404.163 534.576 403.901 537.58 404.306
C 537.545 407.018 536.732 409.796 536.368 412.483
C 535.562 418.435 534.621 424.373 533.747 430.317
C 531.238 447.364 528.644 464.403 526.071 481.439
C 524.054 494.797 521.125 508.512 521.44 522.076
C 521.987 545.582 532.576 568.396 551.731 582.415
C 558.515 587.38 566.114 590.947 574.172 593.301
C 582.939 595.862 592.095 596.582 601.195 596.205
C 604.894 596.052 608.537 595.274 612.227 595.157
C 612.45 596.545 611.88 598.079 611.703 599.457
C 611.297 602.622 610.775 605.769 610.341 608.93
C 610.205 609.922 610.154 612.806 609.447 613.442
C 575.127 619.305 537.122 603.844 519.396 573.428
C 509.291 556.089 505.645 535.475 507.436 515.607 Z"
opacity="1" fill="rgb(154,95,171)" fill-rule="evenodd" />
<path d="
M 529.422 510.602
C 533.307 485.829 536.776 460.969 540.673 436.189
C 541.846 428.731 542.838 421.242 544.096 413.797
C 544.592 410.86 544.379 406.762 545.911 404.156
C 550.234 404.019 554.906 403.595 559.198 404.192
C 559.514 405.452 559.057 407 558.826 408.26
C 558.407 410.536 558.097 412.844 557.778 415.134
C 556.503 424.281 555.172 433.423 553.729 442.548
C 552.13 452.668 550.572 462.801 549.078 472.936
C 547.185 485.769 544.003 498.903 543.888 511.911
C 543.787 523.203 546.291 534.19 552.016 543.974
C 554.224 547.749 556.9 551.197 559.965 554.315
C 563.589 558.001 567.934 561.189 572.454 563.676
C 577.915 566.68 584.034 568.709 590.178 569.727
C 596.369 570.753 602.801 570.612 608.999 569.715
C 611.277 569.385 613.941 569.21 616.097 568.415
C 616.521 569.15 615.685 571.557 615.59 572.452
C 615.249 575.684 614.66 578.901 614.17 582.114
C 613.964 583.461 614.077 585.366 613.557 586.607
C 607.437 588.621 600.018 588.545 593.646 588.337
C 586.327 588.099 579.016 586.827 572.14 584.272
C 565.854 581.935 559.974 578.547 554.617 574.533
C 535.095 559.903 527.286 534.095 529.422 510.602 Z"
opacity="1" fill="rgb(161,100,173)" fill-rule="evenodd" />
<path d="
M 551.943 504.6
C 556.155 480.425 559.229 456.009 563.145 431.776
C 564.628 422.598 565.275 413.059 567.5 404.03
C 571.95 403.434 577.117 403.608 581.599 403.884
C 581.782 404.524 581.399 405.333 581.313 405.981
C 581.047 407.988 580.644 409.974 580.37 411.98
C 579.349 419.458 578.098 426.908 576.879 434.356
C 574.149 451.024 571.613 467.735 569.039 484.426
C 567.4 495.054 564.766 505.603 566.11 516.414
C 568.219 533.386 581.036 547.041 598.529 548.075
C 606.03 548.519 612.406 546.385 619.563 544.772
C 619.302 548.36 618.494 552.023 618 555.602
C 617.834 556.809 617.981 558.872 617.198 559.846
C 615.679 560.699 613.59 560.908 611.901 561.289
C 606.855 562.425 601.87 562.894 596.702 562.514
C 591.256 562.114 585.687 561.006 580.654 558.849
C 559.416 549.745 549.298 526.874 551.943 504.6 Z"
opacity="1" fill="rgb(167,106,176)" fill-rule="evenodd" />
<path d="
M 606.401 479.116
C 611.566 471.767 618.478 465.38 624.455 458.692
C 635.655 446.16 646.944 433.713 658.075 421.12
C 662.918 415.641 667.831 410.172 672.532 404.571
C 673.937 402.897 675.406 401.271 676.834 399.616
C 677.671 398.646 678.393 397.428 679.594 396.889
C 680.965 397.274 682.224 399.916 682.963 401.078
C 685.429 404.955 687.772 408.913 690.279 412.764
C 700.665 428.717 710.25 445.216 720.47 461.28
C 723.31 465.744 726.081 470.251 728.87 474.746
C 729.646 475.997 730.428 477.24 731.233 478.472
C 731.441 478.789 731.985 479.332 731.926 479.723
C 724.335 480.221 716.606 479.86 708.998 479.897
C 706.515 479.91 701.935 479.047 699.786 480.37
C 698.438 491.765 696.544 503.155 694.826 514.502
C 692.769 528.08 691.211 541.964 686.914 555.061
C 681.363 571.985 670.37 587.106 655.932 597.522
C 651.118 600.995 645.986 604.033 640.464 606.252
C 633.766 608.943 626.661 611.65 619.431 612.424
C 618.858 611.783 619.186 610.827 619.301 610.011
C 619.585 607.998 619.908 605.99 620.187 603.975
C 621.32 595.811 622.669 587.677 623.777 579.51
C 626.862 556.776 630.385 534.09 633.87 511.416
C 635.024 503.902 636.312 496.398 637.267 488.856
C 637.614 486.114 638.895 482.617 638.601 479.884
C 627.896 479.911 616.909 480.382 606.231 479.661
C 606.287 479.479 606.344 479.297 606.401 479.116 Z"
opacity="1" fill="rgb(171,108,179)" fill-rule="evenodd" />

</svg>