<svg xmlns="http://www.w3.org/2000/svg" xmlns:xlink="http://www.w3.org/1999/xlink" width="2000" zoomAndPan="magnify" viewBox="0 0 1500 1499.999933" height="2000" preserveAspectRatio="xMidYMid meet" version="1.0"><defs><g/><clipPath id="4755f7d860"><path d="M 0 375 L 1500 375 L 1500 1125 L 0 1125 Z M 0 375 " clip-rule="nonzero"/></clipPath><clipPath id="ec3c2b3172"><path d="M 75 375 L 1425 375 C 1466.421875 375 1500 408.578125 1500 450 L 1500 1050 C 1500 1091.421875 1466.421875 1125 1425 1125 L 75 1125 C 33.578125 1125 0 1091.421875 0 1050 L 0 450 C 0 408.578125 33.578125 375 75 375 Z M 75 375 " clip-rule="nonzero"/></clipPath><clipPath id="d30b7052eb"><path d="M 0 0 L 1500 0 L 1500 750 L 0 750 Z M 0 0 " clip-rule="nonzero"/></clipPath><clipPath id="ffdb729a05"><path d="M 75 0 L 1425 0 C 1466.421875 0 1500 33.578125 1500 75 L 1500 675 C 1500 716.421875 1466.421875 750 1425 750 L 75 750 C 33.578125 750 0 716.421875 0 675 L 0 75 C 0 33.578125 33.578125 0 75 0 Z M 75 0 " clip-rule="nonzero"/></clipPath><clipPath id="21075a1bfa"><rect x="0" width="1500" y="0" height="750"/></clipPath><clipPath id="351b658cf3"><path d="M 0.960938 355 L 1271.039062 355 L 1271.039062 479 L 0.960938 479 Z M 0.960938 355 " clip-rule="nonzero"/></clipPath><clipPath id="930c249ee2"><rect x="0" width="1272" y="0" height="124"/></clipPath><clipPath id="7e72ccd335"><path d="M 406.742188 36.980469 L 464.15625 36.980469 L 464.15625 263.390625 L 406.742188 263.390625 Z M 406.742188 36.980469 " clip-rule="nonzero"/></clipPath><clipPath id="7decd93800"><path d="M 0.742188 0.980469 L 58.15625 0.980469 L 58.15625 227.390625 L 0.742188 227.390625 Z M 0.742188 0.980469 " clip-rule="nonzero"/></clipPath><clipPath id="a406b62e33"><rect x="0" width="59" y="0" height="228"/></clipPath><clipPath id="3acbd26ea5"><path d="M 110 40.0625 L 407.5 40.0625 L 407.5 88.148438 L 110 88.148438 Z M 110 40.0625 " clip-rule="nonzero"/></clipPath><clipPath id="5a31275dc1"><path d="M 173.136719 40.0625 L 401.382812 40.0625 C 403.917969 40.0625 406.179688 41.644531 407.046875 44.019531 C 407.917969 46.398438 407.207031 49.066406 405.273438 50.699219 L 373.484375 77.511719 C 365.339844 84.378906 355.027344 88.148438 344.375 88.148438 L 116.125 88.148438 C 113.59375 88.148438 111.328125 86.566406 110.460938 84.1875 C 109.59375 81.808594 110.300781 79.144531 112.238281 77.511719 L 144.023438 50.699219 C 152.167969 43.828125 162.480469 40.0625 173.136719 40.0625 Z M 173.136719 40.0625 " clip-rule="nonzero"/></clipPath><clipPath id="3e4bafe248"><path d="M 0 0.0625 L 297.5 0.0625 L 297.5 48.148438 L 0 48.148438 Z M 0 0.0625 " clip-rule="nonzero"/></clipPath><clipPath id="11fc5886ab"><path d="M 63.136719 0.0625 L 291.382812 0.0625 C 293.917969 0.0625 296.179688 1.644531 297.046875 4.019531 C 297.917969 6.398438 297.207031 9.066406 295.273438 10.699219 L 263.484375 37.511719 C 255.339844 44.378906 245.027344 48.148438 234.375 48.148438 L 6.125 48.148438 C 3.59375 48.148438 1.328125 46.566406 0.460938 44.1875 C -0.40625 41.808594 0.300781 39.144531 2.238281 37.511719 L 34.023438 10.699219 C 42.167969 3.828125 52.480469 0.0625 63.136719 0.0625 Z M 63.136719 0.0625 " clip-rule="nonzero"/></clipPath><clipPath id="e83c559431"><rect x="0" width="298" y="0" height="49"/></clipPath><clipPath id="c2bffbcdb8"><path d="M 200.636719 69.589844 L 268.160156 69.589844 L 268.160156 344 L 200.636719 344 Z M 200.636719 69.589844 " clip-rule="nonzero"/></clipPath><clipPath id="e561bae14b"><path d="M 211.886719 69.589844 L 256.910156 69.589844 C 263.125 69.589844 268.160156 74.628906 268.160156 80.839844 L 268.160156 332.722656 C 268.160156 338.933594 263.125 343.972656 256.910156 343.972656 L 211.886719 343.972656 C 205.671875 343.972656 200.636719 338.933594 200.636719 332.722656 L 200.636719 80.839844 C 200.636719 74.628906 205.671875 69.589844 211.886719 69.589844 Z M 211.886719 69.589844 " clip-rule="nonzero"/></clipPath><clipPath id="a1fe31ef56"><path d="M 0.636719 0.589844 L 68.160156 0.589844 L 68.160156 275 L 0.636719 275 Z M 0.636719 0.589844 " clip-rule="nonzero"/></clipPath><clipPath id="61aa12b5c6"><path d="M 11.886719 0.589844 L 56.910156 0.589844 C 63.125 0.589844 68.160156 5.628906 68.160156 11.839844 L 68.160156 263.722656 C 68.160156 269.933594 63.125 274.972656 56.910156 274.972656 L 11.886719 274.972656 C 5.671875 274.972656 0.636719 269.933594 0.636719 263.722656 L 0.636719 11.839844 C 0.636719 5.628906 5.671875 0.589844 11.886719 0.589844 Z M 11.886719 0.589844 " clip-rule="nonzero"/></clipPath><clipPath id="86b503e1dc"><rect x="0" width="69" y="0" height="275"/></clipPath><clipPath id="65ee0f78cb"><path d="M 333 0.441406 L 440 0.441406 L 440 116 L 333 116 Z M 333 0.441406 " clip-rule="nonzero"/></clipPath><clipPath id="c9206fd77a"><path d="M 351.53125 115.023438 L 333.203125 98.632812 L 420.949219 0.515625 L 439.277344 16.90625 Z M 351.53125 115.023438 " clip-rule="nonzero"/></clipPath><clipPath id="46c3f94e65"><path d="M 0.121094 0.441406 L 106.441406 0.441406 L 106.441406 115.160156 L 0.121094 115.160156 Z M 0.121094 0.441406 " clip-rule="nonzero"/></clipPath><clipPath id="8377722110"><path d="M 18.53125 115.023438 L 0.203125 98.632812 L 87.949219 0.515625 L 106.277344 16.90625 Z M 18.53125 115.023438 " clip-rule="nonzero"/></clipPath><clipPath id="a09419b287"><rect x="0" width="107" y="0" height="116"/></clipPath><clipPath id="8650b64358"><path d="M 185.4375 88.144531 L 315.980469 88.144531 L 315.980469 92.238281 L 185.4375 92.238281 Z M 185.4375 88.144531 " clip-rule="nonzero"/></clipPath><clipPath id="3ca2c74753"><path d="M 0.4375 0.144531 L 130.980469 0.144531 L 130.980469 4.238281 L 0.4375 4.238281 Z M 0.4375 0.144531 " clip-rule="nonzero"/></clipPath><clipPath id="5c07884891"><rect x="0" width="131" y="0" height="5"/></clipPath><clipPath id="343ae4dc64"><rect x="0" width="534" y="0" height="333"/></clipPath><clipPath id="df871a0d4c"><rect x="0" width="123" y="0" height="329"/></clipPath><clipPath id="f45ddb72fb"><path d="M 828.921875 88.066406 L 1033.628906 88.066406 L 1033.628906 334 L 828.921875 334 Z M 828.921875 88.066406 " clip-rule="nonzero"/></clipPath><clipPath id="cfa520ee5c"><path d="M 897.195312 327.953125 C 907.6875 331.433594 919.621094 333.71875 931.332031 333.71875 C 943.042969 333.71875 954.308594 331.761719 964.695312 328.28125 C 964.914062 328.171875 965.136719 328.171875 965.355469 328.0625 C 1004.355469 314.144531 1033.078125 277.386719 1033.628906 234.433594 L 1033.628906 88.066406 L 828.921875 88.066406 L 828.921875 234.324219 C 829.472656 277.605469 857.753906 314.363281 897.195312 327.953125 Z M 897.195312 327.953125 " clip-rule="nonzero"/></clipPath><clipPath id="d49d62603d"><path d="M 0.921875 0.0664062 L 205.628906 0.0664062 L 205.628906 245.800781 L 0.921875 245.800781 Z M 0.921875 0.0664062 " clip-rule="nonzero"/></clipPath><clipPath id="b28d34f821"><path d="M 69.195312 239.953125 C 79.6875 243.433594 91.621094 245.71875 103.332031 245.71875 C 115.042969 245.71875 126.308594 243.761719 136.695312 240.28125 C 136.914062 240.171875 137.136719 240.171875 137.355469 240.0625 C 176.355469 226.144531 205.078125 189.386719 205.628906 146.433594 L 205.628906 0.0664062 L 0.921875 0.0664062 L 0.921875 146.324219 C 1.472656 189.605469 29.753906 226.363281 69.195312 239.953125 Z M 69.195312 239.953125 " clip-rule="nonzero"/></clipPath><clipPath id="57526996c5"><rect x="0" width="206" y="0" height="246"/></clipPath><clipPath id="31cd31be0d"><path d="M 828.921875 88.066406 L 1013.160156 88.066406 L 1013.160156 316.925781 L 828.921875 316.925781 Z M 828.921875 88.066406 " clip-rule="nonzero"/></clipPath><clipPath id="6f94cda8cf"><path d="M 890.367188 311.195312 C 899.8125 314.429688 910.550781 316.554688 921.089844 316.554688 C 931.628906 316.554688 941.769531 314.734375 951.117188 311.496094 C 951.316406 311.394531 951.515625 311.394531 951.714844 311.292969 C 986.8125 298.347656 1012.664062 264.160156 1013.160156 224.207031 L 1013.160156 88.066406 L 828.921875 88.066406 L 828.921875 224.105469 C 829.417969 264.363281 854.871094 298.550781 890.367188 311.195312 Z M 890.367188 311.195312 " clip-rule="nonzero"/></clipPath><clipPath id="abf167c421"><path d="M 0.921875 0.0664062 L 185.160156 0.0664062 L 185.160156 228.761719 L 0.921875 228.761719 Z M 0.921875 0.0664062 " clip-rule="nonzero"/></clipPath><clipPath id="ca5e9560a4"><path d="M 62.367188 223.195312 C 71.8125 226.429688 82.550781 228.554688 93.089844 228.554688 C 103.628906 228.554688 113.769531 226.734375 123.117188 223.496094 C 123.316406 223.394531 123.515625 223.394531 123.714844 223.292969 C 158.8125 210.347656 184.664062 176.160156 185.160156 136.207031 L 185.160156 0.0664062 L 0.921875 0.0664062 L 0.921875 136.105469 C 1.417969 176.363281 26.871094 210.550781 62.367188 223.195312 Z M 62.367188 223.195312 " clip-rule="nonzero"/></clipPath><clipPath id="aacf809d67"><rect x="0" width="186" y="0" height="229"/></clipPath><clipPath id="8d32fbd148"><path d="M 828.921875 88.066406 L 992.6875 88.066406 L 992.6875 301 L 828.921875 301 Z M 828.921875 88.066406 " clip-rule="nonzero"/></clipPath><clipPath id="7a85aaad32"><path d="M 883.539062 295.746094 C 891.933594 298.761719 901.480469 300.738281 910.847656 300.738281 C 920.21875 300.738281 929.230469 299.042969 937.539062 296.03125 C 937.714844 295.9375 937.894531 295.9375 938.070312 295.839844 C 969.269531 283.792969 992.246094 251.96875 992.6875 214.785156 L 992.6875 88.066406 L 828.921875 88.066406 L 828.921875 214.691406 C 829.363281 252.160156 851.988281 283.980469 883.539062 295.746094 Z M 883.539062 295.746094 " clip-rule="nonzero"/></clipPath><clipPath id="45e8e80745"><path d="M 0.921875 0.0664062 L 164.6875 0.0664062 L 164.6875 212.917969 L 0.921875 212.917969 Z M 0.921875 0.0664062 " clip-rule="nonzero"/></clipPath><clipPath id="64b416d2a1"><path d="M 55.539062 207.746094 C 63.933594 210.761719 73.480469 212.738281 82.847656 212.738281 C 92.21875 212.738281 101.230469 211.042969 109.539062 208.03125 C 109.714844 207.9375 109.894531 207.9375 110.070312 207.839844 C 141.269531 195.792969 164.246094 163.96875 164.6875 126.785156 L 164.6875 0.0664062 L 0.921875 0.0664062 L 0.921875 126.691406 C 1.363281 164.160156 23.988281 195.980469 55.539062 207.746094 Z M 55.539062 207.746094 " clip-rule="nonzero"/></clipPath><clipPath id="1b22da756b"><rect x="0" width="165" y="0" height="213"/></clipPath><clipPath id="409b9bcf5f"><path d="M 828.921875 88.066406 L 972.21875 88.066406 L 972.21875 287.898438 L 828.921875 287.898438 Z M 828.921875 88.066406 " clip-rule="nonzero"/></clipPath><clipPath id="30070c22df"><path d="M 876.710938 283.195312 C 884.058594 286.023438 892.410156 287.882812 900.609375 287.882812 C 908.804688 287.882812 916.691406 286.289062 923.960938 283.457031 C 924.117188 283.371094 924.273438 283.371094 924.425781 283.28125 C 951.726562 271.960938 971.832031 242.0625 972.21875 207.125 L 972.21875 88.066406 L 828.921875 88.066406 L 828.921875 207.035156 C 829.308594 242.238281 849.105469 272.136719 876.710938 283.195312 Z M 876.710938 283.195312 " clip-rule="nonzero"/></clipPath><clipPath id="80403c5799"><path d="M 0.921875 0.0664062 L 144.21875 0.0664062 L 144.21875 199.898438 L 0.921875 199.898438 Z M 0.921875 0.0664062 " clip-rule="nonzero"/></clipPath><clipPath id="d3e8b55096"><path d="M 48.710938 195.195312 C 56.058594 198.023438 64.410156 199.882812 72.609375 199.882812 C 80.804688 199.882812 88.691406 198.289062 95.960938 195.457031 C 96.117188 195.371094 96.273438 195.371094 96.425781 195.28125 C 123.726562 183.960938 143.832031 154.0625 144.21875 119.125 L 144.21875 0.0664062 L 0.921875 0.0664062 L 0.921875 119.035156 C 1.308594 154.238281 21.105469 184.136719 48.710938 195.195312 Z M 48.710938 195.195312 " clip-rule="nonzero"/></clipPath><clipPath id="f857d002d2"><rect x="0" width="145" y="0" height="200"/></clipPath><clipPath id="a96f9bf255"><path d="M 934.695312 5.394531 L 1071.132812 5.394531 L 1071.132812 83.6875 L 934.695312 83.6875 Z M 934.695312 5.394531 " clip-rule="nonzero"/></clipPath><clipPath id="981120532a"><path d="M 1010.425781 8.90625 L 1069.824219 75.300781 C 1071.148438 76.78125 1071.476562 78.898438 1070.667969 80.710938 C 1069.859375 82.519531 1068.058594 83.6875 1066.078125 83.6875 L 939.773438 83.6875 C 937.789062 83.6875 935.988281 82.519531 935.179688 80.710938 C 934.371094 78.898438 934.699219 76.78125 936.023438 75.300781 L 995.421875 8.90625 C 997.332031 6.773438 1000.0625 5.554688 1002.925781 5.554688 C 1005.789062 5.554688 1008.515625 6.773438 1010.425781 8.90625 Z M 1010.425781 8.90625 " clip-rule="nonzero"/></clipPath><clipPath id="9e969ccd99"><path d="M 0.695312 0.480469 L 137.132812 0.480469 L 137.132812 78.6875 L 0.695312 78.6875 Z M 0.695312 0.480469 " clip-rule="nonzero"/></clipPath><clipPath id="b4b0b2f065"><path d="M 76.425781 3.90625 L 135.824219 70.300781 C 137.148438 71.78125 137.476562 73.898438 136.667969 75.710938 C 135.859375 77.519531 134.058594 78.6875 132.078125 78.6875 L 5.773438 78.6875 C 3.789062 78.6875 1.988281 77.519531 1.179688 75.710938 C 0.371094 73.898438 0.699219 71.78125 2.023438 70.300781 L 61.421875 3.90625 C 63.332031 1.773438 66.0625 0.554688 68.925781 0.554688 C 71.789062 0.554688 74.515625 1.773438 76.425781 3.90625 Z M 76.425781 3.90625 " clip-rule="nonzero"/></clipPath><clipPath id="caee1e625c"><rect x="0" width="138" y="0" height="79"/></clipPath><clipPath id="50a8c96e14"><path d="M 830.25 84.605469 L 970.871094 84.605469 L 970.871094 120.265625 L 830.25 120.265625 Z M 830.25 84.605469 " clip-rule="nonzero"/></clipPath><clipPath id="783dadf1a7"><path d="M 0.25 0.605469 L 140.871094 0.605469 L 140.871094 36.265625 L 0.25 36.265625 Z M 0.25 0.605469 " clip-rule="nonzero"/></clipPath><clipPath id="f822b0b5a1"><rect x="0" width="141" y="0" height="37"/></clipPath><clipPath id="327b0069f4"><path d="M 992.675781 84.605469 L 1013.148438 84.605469 L 1013.148438 127.617188 L 992.675781 127.617188 Z M 992.675781 84.605469 " clip-rule="nonzero"/></clipPath><clipPath id="2b29d1197e"><path d="M 0.675781 0.605469 L 21.148438 0.605469 L 21.148438 43.617188 L 0.675781 43.617188 Z M 0.675781 0.605469 " clip-rule="nonzero"/></clipPath><clipPath id="40f69203ba"><rect x="0" width="22" y="0" height="44"/></clipPath><clipPath id="aa0f725bd1"><path d="M 929.054688 83.679688 L 1069.675781 83.679688 L 1069.675781 88.058594 L 929.054688 88.058594 Z M 929.054688 83.679688 " clip-rule="nonzero"/></clipPath><clipPath id="32aeab3cfd"><path d="M 0.0546875 0.679688 L 140.675781 0.679688 L 140.675781 5.058594 L 0.0546875 5.058594 Z M 0.0546875 0.679688 " clip-rule="nonzero"/></clipPath><clipPath id="3c0d914554"><rect x="0" width="141" y="0" height="6"/></clipPath><clipPath id="c96da8db0f"><path d="M 819.988281 35.078125 L 855.648438 35.078125 L 855.648438 213.480469 L 819.988281 213.480469 Z M 819.988281 35.078125 " clip-rule="nonzero"/></clipPath><clipPath id="4540e62fd5"><path d="M 0.988281 0.078125 L 36.648438 0.078125 L 36.648438 178.480469 L 0.988281 178.480469 Z M 0.988281 0.078125 " clip-rule="nonzero"/></clipPath><clipPath id="ef99cebc58"><rect x="0" width="37" y="0" height="179"/></clipPath><clipPath id="54f74f3267"><rect x="0" width="1272" y="0" height="479"/></clipPath></defs><g clip-path="url(#4755f7d860)"><g clip-path="url(#ec3c2b3172)"><g transform="matrix(1, 0, 0, 1, 0, 375)"><g clip-path="url(#21075a1bfa)"><g clip-path="url(#d30b7052eb)"><g clip-path="url(#ffdb729a05)"><rect x="-330" width="2160" fill="#ffffff" height="2159.999904" y="-704.999985" fill-opacity="1"/></g></g></g></g><path stroke-linecap="butt" transform="matrix(0.75, 0, 0, 0.75, 0.00003335, 374.999948)" fill="none" stroke-linejoin="miter" d="M 99.999971 0.0000697333 L 1900.000241 0.0000697333 C 1955.229416 0.0000697333 2000.000256 44.77091 2000.000256 100.000085 L 2000.000256 900.000205 C 2000.000256 955.22938 1955.229416 1000.00022 1900.000241 1000.00022 L 99.999971 1000.00022 C 44.770796 1000.00022 -0.0000444667 955.22938 -0.0000444667 900.000205 L -0.0000444667 100.000085 C -0.0000444667 44.77091 44.770796 0.0000697333 99.999971 0.0000697333 Z M 99.999971 0.0000697333 " stroke="#2d3a8c" stroke-width="80" stroke-opacity="1" stroke-miterlimit="4"/></g></g><g transform="matrix(1, 0, 0, 1, 114, 505)"><g clip-path="url(#54f74f3267)"><g clip-path="url(#351b658cf3)"><g transform="matrix(1, 0, 0, 1, 0.000000000000014211, 355)"><g clip-path="url(#930c249ee2)"><g fill="#000000" fill-opacity="1"><g transform="translate(1.107234, 92.237852)"><g><path d="M 24.953125 -85.59375 C 31.628906 -85.59375 36.535156 -83.695312 39.671875 -79.90625 C 42.816406 -76.113281 44.390625 -70.914062 44.390625 -64.3125 L 44.390625 -21.15625 C 44.390625 -14.550781 42.816406 -9.375 39.671875 -5.625 C 36.535156 -1.875 31.628906 0 24.953125 0 L 4.890625 0 L 4.890625 -85.59375 Z M 24.828125 -8.6875 C 28.242188 -8.6875 30.785156 -9.722656 32.453125 -11.796875 C 34.128906 -13.878906 34.96875 -16.875 34.96875 -20.78125 L 34.96875 -64.8125 C 34.96875 -68.71875 34.128906 -71.710938 32.453125 -73.796875 C 30.785156 -75.878906 28.203125 -76.921875 24.703125 -76.921875 L 14.421875 -76.921875 L 14.421875 -8.6875 Z M 24.828125 -8.6875 "/></g></g></g><g fill="#000000" fill-opacity="1"><g transform="translate(49.529061, 92.237852)"><g><path d="M 35.34375 -47.6875 L 35.34375 -39.125 L 14.421875 -39.125 L 14.421875 -8.6875 L 40.109375 -8.6875 L 40.109375 0 L 4.890625 0 L 4.890625 -85.59375 L 40.109375 -85.59375 L 40.109375 -76.921875 L 14.421875 -76.921875 L 14.421875 -47.6875 Z M 35.34375 -47.6875 "/></g></g></g><g fill="#000000" fill-opacity="1"><g transform="translate(93.548927, 92.237852)"><g><path d="M 14.421875 -85.59375 L 14.421875 0 L 4.890625 0 L 4.890625 -85.59375 Z M 14.421875 -85.59375 "/></g></g></g><g fill="#000000" fill-opacity="1"><g transform="translate(112.868729, 92.237852)"><g><path d="M 13.328125 0 L 4.765625 0 L 4.765625 -85.59375 L 16.875 -85.59375 L 36.6875 -23.71875 L 36.6875 -85.59375 L 45.125 -85.59375 L 45.125 0 L 35.21875 0 L 13.328125 -69.21875 Z M 13.328125 0 "/></g></g></g><g fill="#000000" fill-opacity="1"><g transform="translate(162.880176, 92.237852)"><g><path d="M 35.34375 -47.6875 L 35.34375 -39.125 L 14.421875 -39.125 L 14.421875 -8.6875 L 40.109375 -8.6875 L 40.109375 0 L 4.890625 0 L 4.890625 -85.59375 L 40.109375 -85.59375 L 40.109375 -76.921875 L 14.421875 -76.921875 L 14.421875 -47.6875 Z M 35.34375 -47.6875 "/></g></g></g><g fill="#000000" fill-opacity="1"><g transform="translate(206.900042, 92.237852)"><g/></g></g><g fill="#000000" fill-opacity="1"><g transform="translate(225.853036, 92.237852)"><g><path d="M 4.890625 0 L 4.890625 -85.59375 L 14.421875 -85.59375 L 14.421875 -8.6875 L 38.890625 -8.6875 L 38.890625 0 Z M 4.890625 0 "/></g></g></g><g fill="#000000" fill-opacity="1"><g transform="translate(267.060516, 92.237852)"><g><path d="M 35.34375 -47.6875 L 35.34375 -39.125 L 14.421875 -39.125 L 14.421875 -8.6875 L 40.109375 -8.6875 L 40.109375 0 L 4.890625 0 L 4.890625 -85.59375 L 40.109375 -85.59375 L 40.109375 -76.921875 L 14.421875 -76.921875 L 14.421875 -47.6875 Z M 35.34375 -47.6875 "/></g></g></g><g fill="#000000" fill-opacity="1"><g transform="translate(311.080383, 92.237852)"><g><path d="M 14.421875 -85.59375 L 14.421875 0 L 4.890625 0 L 4.890625 -85.59375 Z M 14.421875 -85.59375 "/></g></g></g><g fill="#000000" fill-opacity="1"><g transform="translate(330.400185, 92.237852)"><g><path d="M 23.359375 -86.453125 C 29.960938 -86.453125 34.832031 -84.492188 37.96875 -80.578125 C 41.101562 -76.671875 42.671875 -71.457031 42.671875 -64.9375 L 42.671875 -57.234375 L 33.625 -57.234375 L 33.625 -65.421875 C 33.625 -69.335938 32.828125 -72.375 31.234375 -74.53125 C 29.648438 -76.6875 27.101562 -77.765625 23.59375 -77.765625 C 20.175781 -77.765625 17.648438 -76.6875 16.015625 -74.53125 C 14.390625 -72.375 13.578125 -69.335938 13.578125 -65.421875 L 13.578125 -20.171875 C 13.578125 -16.265625 14.390625 -13.226562 16.015625 -11.0625 C 17.648438 -8.90625 20.175781 -7.828125 23.59375 -7.828125 C 27.101562 -7.828125 29.648438 -8.90625 31.234375 -11.0625 C 32.828125 -13.226562 33.625 -16.265625 33.625 -20.171875 L 33.625 -31.296875 L 42.671875 -31.296875 L 42.671875 -20.671875 C 42.671875 -14.148438 41.101562 -8.929688 37.96875 -5.015625 C 34.832031 -1.097656 29.960938 0.859375 23.359375 0.859375 C 16.835938 0.859375 12.003906 -1.097656 8.859375 -5.015625 C 5.722656 -8.929688 4.15625 -14.148438 4.15625 -20.671875 L 4.15625 -64.9375 C 4.15625 -68.195312 4.539062 -71.148438 5.3125 -73.796875 C 6.09375 -76.441406 7.273438 -78.703125 8.859375 -80.578125 C 10.453125 -82.453125 12.453125 -83.898438 14.859375 -84.921875 C 17.265625 -85.941406 20.097656 -86.453125 23.359375 -86.453125 Z M 23.359375 -86.453125 "/></g></g></g><g fill="#000000" fill-opacity="1"><g transform="translate(376.865585, 92.237852)"><g><path d="M 14.421875 -38.515625 L 14.421875 0 L 4.890625 0 L 4.890625 -85.59375 L 14.421875 -85.59375 L 14.421875 -47.078125 L 35.46875 -47.078125 L 35.46875 -85.59375 L 45 -85.59375 L 45 0 L 35.46875 0 L 35.46875 -38.515625 Z M 14.421875 -38.515625 "/></g></g></g><g fill="#000000" fill-opacity="1"><g transform="translate(426.754731, 92.237852)"><g><path d="M 17.234375 0 L 17.234375 -76.921875 L 1.46875 -76.921875 L 1.46875 -85.59375 L 42.4375 -85.59375 L 42.4375 -76.921875 L 26.65625 -76.921875 L 26.65625 0 Z M 17.234375 0 "/></g></g></g><g fill="#000000" fill-opacity="1"><g transform="translate(466.127646, 92.237852)"><g><path d="M 14.546875 -17.234375 L 11.25 0 L 2.453125 0 L 18.828125 -85.59375 L 32.65625 -85.59375 L 49.03125 0 L 39.5 0 L 36.1875 -17.234375 Z M 15.78125 -25.4375 L 34.84375 -25.4375 L 25.1875 -74.84375 Z M 15.78125 -25.4375 "/></g></g></g><g fill="#000000" fill-opacity="1"><g transform="translate(513.081758, 92.237852)"><g><path d="M 17.234375 0 L 17.234375 -76.921875 L 1.46875 -76.921875 L 1.46875 -85.59375 L 42.4375 -85.59375 L 42.4375 -76.921875 L 26.65625 -76.921875 L 26.65625 0 Z M 17.234375 0 "/></g></g></g><g fill="#000000" fill-opacity="1"><g transform="translate(557.101624, 92.237852)"><g><path d="M 14.421875 -38.515625 L 14.421875 0 L 4.890625 0 L 4.890625 -85.59375 L 14.421875 -85.59375 L 14.421875 -47.078125 L 35.46875 -47.078125 L 35.46875 -85.59375 L 45 -85.59375 L 45 0 L 35.46875 0 L 35.46875 -38.515625 Z M 14.421875 -38.515625 "/></g></g></g><g fill="#000000" fill-opacity="1"><g transform="translate(606.990771, 92.237852)"><g><path d="M 4.890625 0 L 4.890625 -85.59375 L 14.421875 -85.59375 L 14.421875 -8.6875 L 38.890625 -8.6875 L 38.890625 0 Z M 4.890625 0 "/></g></g></g><g fill="#000000" fill-opacity="1"><g transform="translate(648.198251, 92.237852)"><g><path d="M 35.34375 -47.6875 L 35.34375 -39.125 L 14.421875 -39.125 L 14.421875 -8.6875 L 40.109375 -8.6875 L 40.109375 0 L 4.890625 0 L 4.890625 -85.59375 L 40.109375 -85.59375 L 40.109375 -76.921875 L 14.421875 -76.921875 L 14.421875 -47.6875 Z M 35.34375 -47.6875 "/></g></g></g><g fill="#000000" fill-opacity="1"><g transform="translate(692.218117, 92.237852)"><g><path d="M 17.234375 0 L 17.234375 -76.921875 L 1.46875 -76.921875 L 1.46875 -85.59375 L 42.4375 -85.59375 L 42.4375 -76.921875 L 26.65625 -76.921875 L 26.65625 0 Z M 17.234375 0 "/></g></g></g><g fill="#000000" fill-opacity="1"><g transform="translate(736.238027, 92.237852)"><g><path d="M 14.421875 -85.59375 L 14.421875 0 L 4.890625 0 L 4.890625 -85.59375 Z M 14.421875 -85.59375 "/></g></g></g><g fill="#000000" fill-opacity="1"><g transform="translate(755.557786, 92.237852)"><g><path d="M 19.4375 -37.171875 L 14.421875 -28.734375 L 14.421875 0 L 4.890625 0 L 4.890625 -85.59375 L 14.421875 -85.59375 L 14.421875 -44.265625 L 37.171875 -85.59375 L 46.828125 -85.59375 L 25.1875 -46.59375 L 47.5625 0 L 37.78125 0 Z M 19.4375 -37.171875 "/></g></g></g><g fill="#000000" fill-opacity="1"><g transform="translate(805.569232, 92.237852)"><g><path d="M 4.53125 -47.078125 L 27.875 -47.078125 L 27.875 -38.515625 L 4.53125 -38.515625 Z M 4.53125 -47.078125 "/></g></g></g><g fill="#000000" fill-opacity="1"><g transform="translate(837.972748, 92.237852)"><g><path d="M 24.953125 -85.59375 C 31.628906 -85.59375 36.535156 -83.695312 39.671875 -79.90625 C 42.816406 -76.113281 44.390625 -70.914062 44.390625 -64.3125 L 44.390625 -21.15625 C 44.390625 -14.550781 42.816406 -9.375 39.671875 -5.625 C 36.535156 -1.875 31.628906 0 24.953125 0 L 4.890625 0 L 4.890625 -85.59375 Z M 24.828125 -8.6875 C 28.242188 -8.6875 30.785156 -9.722656 32.453125 -11.796875 C 34.128906 -13.878906 34.96875 -16.875 34.96875 -20.78125 L 34.96875 -64.8125 C 34.96875 -68.71875 34.128906 -71.710938 32.453125 -73.796875 C 30.785156 -75.878906 28.203125 -76.921875 24.703125 -76.921875 L 14.421875 -76.921875 L 14.421875 -8.6875 Z M 24.828125 -8.6875 "/></g></g></g><g fill="#000000" fill-opacity="1"><g transform="translate(886.272275, 92.237852)"><g><path d="M 14.546875 -17.234375 L 11.25 0 L 2.453125 0 L 18.828125 -85.59375 L 32.65625 -85.59375 L 49.03125 0 L 39.5 0 L 36.1875 -17.234375 Z M 15.78125 -25.4375 L 34.84375 -25.4375 L 25.1875 -74.84375 Z M 15.78125 -25.4375 "/></g></g></g><g fill="#000000" fill-opacity="1"><g transform="translate(933.226344, 92.237852)"><g><path d="M 17.234375 0 L 17.234375 -76.921875 L 1.46875 -76.921875 L 1.46875 -85.59375 L 42.4375 -85.59375 L 42.4375 -76.921875 L 26.65625 -76.921875 L 26.65625 0 Z M 17.234375 0 "/></g></g></g><g fill="#000000" fill-opacity="1"><g transform="translate(977.246298, 92.237852)"><g><path d="M 35.34375 -47.6875 L 35.34375 -39.125 L 14.421875 -39.125 L 14.421875 -8.6875 L 40.109375 -8.6875 L 40.109375 0 L 4.890625 0 L 4.890625 -85.59375 L 40.109375 -85.59375 L 40.109375 -76.921875 L 14.421875 -76.921875 L 14.421875 -47.6875 Z M 35.34375 -47.6875 "/></g></g></g><g fill="#000000" fill-opacity="1"><g transform="translate(1021.266076, 92.237852)"><g><path d="M 13.328125 0 L 4.765625 0 L 4.765625 -85.59375 L 16.875 -85.59375 L 36.6875 -23.71875 L 36.6875 -85.59375 L 45.125 -85.59375 L 45.125 0 L 35.21875 0 L 13.328125 -69.21875 Z M 13.328125 0 "/></g></g></g><g fill="#000000" fill-opacity="1"><g transform="translate(1071.277609, 92.237852)"><g><path d="M 24.09375 -85.59375 C 30.769531 -85.59375 35.535156 -84.023438 38.390625 -80.890625 C 41.242188 -77.753906 42.671875 -73.003906 42.671875 -66.640625 L 42.671875 -62.609375 C 42.671875 -58.046875 41.9375 -54.359375 40.46875 -51.546875 C 39.007812 -48.734375 36.40625 -46.753906 32.65625 -45.609375 C 36.8125 -44.472656 39.765625 -42.3125 41.515625 -39.125 C 43.265625 -35.945312 44.140625 -31.992188 44.140625 -27.265625 L 44.140625 -20.046875 C 44.140625 -13.609375 42.550781 -8.65625 39.375 -5.1875 C 36.195312 -1.726562 31.265625 0 24.578125 0 L 4.890625 0 L 4.890625 -85.59375 Z M 21.765625 -49.28125 C 25.597656 -49.28125 28.472656 -50.050781 30.390625 -51.59375 C 32.304688 -53.144531 33.265625 -56.164062 33.265625 -60.65625 L 33.265625 -65.671875 C 33.265625 -69.492188 32.550781 -72.320312 31.125 -74.15625 C 29.695312 -76 27.269531 -76.921875 23.84375 -76.921875 L 14.421875 -76.921875 L 14.421875 -49.28125 Z M 24.578125 -8.6875 C 31.347656 -8.6875 34.734375 -12.554688 34.734375 -20.296875 L 34.734375 -27.875 C 34.734375 -32.6875 33.773438 -36.007812 31.859375 -37.84375 C 29.941406 -39.675781 26.90625 -40.59375 22.75 -40.59375 L 14.421875 -40.59375 L 14.421875 -8.6875 Z M 24.578125 -8.6875 "/></g></g></g><g fill="#000000" fill-opacity="1"><g transform="translate(1119.210241, 92.237852)"><g><path d="M 14.546875 -17.234375 L 11.25 0 L 2.453125 0 L 18.828125 -85.59375 L 32.65625 -85.59375 L 49.03125 0 L 39.5 0 L 36.1875 -17.234375 Z M 15.78125 -25.4375 L 34.84375 -25.4375 L 25.1875 -74.84375 Z M 15.78125 -25.4375 "/></g></g></g><g fill="#000000" fill-opacity="1"><g transform="translate(1170.811306, 92.237852)"><g><path d="M 13.328125 0 L 4.765625 0 L 4.765625 -85.59375 L 16.875 -85.59375 L 36.6875 -23.71875 L 36.6875 -85.59375 L 45.125 -85.59375 L 45.125 0 L 35.21875 0 L 13.328125 -69.21875 Z M 13.328125 0 "/></g></g></g><g fill="#000000" fill-opacity="1"><g transform="translate(1220.822838, 92.237852)"><g><path d="M 19.4375 -37.171875 L 14.421875 -28.734375 L 14.421875 0 L 4.890625 0 L 4.890625 -85.59375 L 14.421875 -85.59375 L 14.421875 -44.265625 L 37.171875 -85.59375 L 46.828125 -85.59375 L 25.1875 -46.59375 L 47.5625 0 L 37.78125 0 Z M 19.4375 -37.171875 "/></g></g></g></g></g></g><g clip-path="url(#7e72ccd335)"><g transform="matrix(1, 0, 0, 1, 406, 36)"><g clip-path="url(#a406b62e33)"><g clip-path="url(#7decd93800)"><path fill="#ffffff" d="M 0.742188 0.980469 L 58.15625 0.980469 L 58.15625 227.488281 L 0.742188 227.488281 Z M 0.742188 0.980469 " fill-opacity="1" fill-rule="nonzero"/></g></g></g></g><g clip-path="url(#3acbd26ea5)"><g clip-path="url(#5a31275dc1)"><g transform="matrix(1, 0, 0, 1, 110, 40)"><g clip-path="url(#e83c559431)"><g clip-path="url(#3e4bafe248)"><g clip-path="url(#11fc5886ab)"><path fill="#2d3a8c" d="M -10.375 0.0625 L 307.828125 0.0625 L 307.828125 48.148438 L -10.375 48.148438 Z M -10.375 0.0625 " fill-opacity="1" fill-rule="nonzero"/></g></g></g></g></g></g><g clip-path="url(#c2bffbcdb8)"><g clip-path="url(#e561bae14b)"><g transform="matrix(1, 0, 0, 1, 200, 69)"><g clip-path="url(#86b503e1dc)"><g clip-path="url(#a1fe31ef56)"><g clip-path="url(#61aa12b5c6)"><path fill="#2d3a8c" d="M 0.636719 0.589844 L 68.160156 0.589844 L 68.160156 274.90625 L 0.636719 274.90625 Z M 0.636719 0.589844 " fill-opacity="1" fill-rule="nonzero"/></g></g></g></g></g></g><g clip-path="url(#65ee0f78cb)"><g clip-path="url(#c9206fd77a)"><g transform="matrix(1, 0, 0, 1, 333, 0.000000000000113687)"><g clip-path="url(#a09419b287)"><g clip-path="url(#46c3f94e65)"><g clip-path="url(#8377722110)"><path fill="#ffffff" d="M 18.53125 115.023438 L 0.203125 98.632812 L 87.980469 0.484375 L 106.308594 16.875 Z M 18.53125 115.023438 " fill-opacity="1" fill-rule="nonzero"/></g></g></g></g></g></g><g clip-path="url(#8650b64358)"><g transform="matrix(1, 0, 0, 1, 185, 88)"><g clip-path="url(#5c07884891)"><g clip-path="url(#3ca2c74753)"><path fill="#ffffff" d="M 0.4375 4.238281 L 0.4375 0.144531 L 130.972656 0.144531 L 130.972656 4.238281 Z M 0.4375 4.238281 " fill-opacity="1" fill-rule="nonzero"/></g></g></g></g><g transform="matrix(1, 0, 0, 1, 291, 87)"><g clip-path="url(#343ae4dc64)"><g fill="#2d3a8c" fill-opacity="1"><g transform="translate(0.93826, 247.296806)"><g><path d="M 64.515625 -230.421875 C 82.734375 -230.421875 95.847656 -225.921875 103.859375 -216.921875 C 111.867188 -207.921875 115.875 -194.863281 115.875 -177.75 L 115.875 -158.984375 C 115.875 -146.253906 113.566406 -135.941406 108.953125 -128.046875 C 104.347656 -120.148438 97.109375 -114.664062 87.234375 -111.59375 C 97.765625 -108.519531 105.222656 -102.867188 109.609375 -94.640625 C 114.003906 -86.410156 116.203125 -76.039062 116.203125 -63.53125 L 116.203125 -27.65625 C 116.203125 -22.601562 116.421875 -17.71875 116.859375 -13 C 117.296875 -8.28125 118.613281 -3.945312 120.8125 0 L 94.796875 0 C 93.265625 -3.289062 92.164062 -6.851562 91.5 -10.6875 C 90.84375 -14.53125 90.515625 -20.296875 90.515625 -27.984375 L 90.515625 -64.1875 C 90.515625 -77.132812 87.609375 -86.078125 81.796875 -91.015625 C 75.984375 -95.953125 67.703125 -98.421875 56.953125 -98.421875 L 38.84375 -98.421875 L 38.84375 0 L 13.171875 0 L 13.171875 -230.421875 Z M 57.9375 -121.796875 C 68.25 -121.796875 76.253906 -123.929688 81.953125 -128.203125 C 87.660156 -132.484375 90.515625 -140.878906 90.515625 -153.390625 L 90.515625 -175.453125 C 90.515625 -185.984375 88.484375 -193.878906 84.421875 -199.140625 C 80.367188 -204.410156 73.515625 -207.046875 63.859375 -207.046875 L 38.84375 -207.046875 L 38.84375 -121.796875 Z M 57.9375 -121.796875 "/></g></g></g><g fill="#2d3a8c" fill-opacity="1"><g transform="translate(130.618534, 247.296806)"><g><path d="M 39.171875 -46.40625 L 30.28125 0 L 6.578125 0 L 50.6875 -230.421875 L 87.890625 -230.421875 L 132 0 L 106.328125 0 L 97.4375 -46.40625 Z M 42.46875 -68.46875 L 93.8125 -68.46875 L 67.8125 -201.453125 Z M 42.46875 -68.46875 "/></g></g></g><g fill="#2d3a8c" fill-opacity="1"><g transform="translate(269.185537, 247.296806)"><g><path d="M 62.875 -232.71875 C 80.644531 -232.71875 93.753906 -227.453125 102.203125 -216.921875 C 110.648438 -206.390625 114.875 -192.347656 114.875 -174.796875 L 114.875 -154.046875 L 90.515625 -154.046875 L 90.515625 -176.109375 C 90.515625 -186.640625 88.375 -194.8125 84.09375 -200.625 C 79.820312 -206.445312 72.96875 -209.359375 63.53125 -209.359375 C 54.3125 -209.359375 47.503906 -206.445312 43.109375 -200.625 C 38.722656 -194.8125 36.53125 -186.640625 36.53125 -176.109375 L 36.53125 -54.3125 C 36.53125 -43.78125 38.722656 -35.601562 43.109375 -29.78125 C 47.503906 -23.96875 54.3125 -21.0625 63.53125 -21.0625 C 72.96875 -21.0625 79.820312 -23.96875 84.09375 -29.78125 C 88.375 -35.601562 90.515625 -43.78125 90.515625 -54.3125 L 90.515625 -84.265625 L 114.875 -84.265625 L 114.875 -55.625 C 114.875 -38.070312 110.648438 -24.03125 102.203125 -13.5 C 93.753906 -2.96875 80.644531 2.296875 62.875 2.296875 C 45.3125 2.296875 32.304688 -2.96875 23.859375 -13.5 C 15.410156 -24.03125 11.1875 -38.070312 11.1875 -55.625 L 11.1875 -174.796875 C 11.1875 -183.566406 12.226562 -191.519531 14.3125 -198.65625 C 16.40625 -205.789062 19.585938 -211.878906 23.859375 -216.921875 C 28.140625 -221.972656 33.515625 -225.867188 39.984375 -228.609375 C 46.460938 -231.347656 54.09375 -232.71875 62.875 -232.71875 Z M 62.875 -232.71875 "/></g></g></g><g fill="#2d3a8c" fill-opacity="1"><g transform="translate(394.257906, 247.296806)"><g><path d="M 52.34375 -100.0625 L 38.84375 -77.359375 L 38.84375 0 L 13.171875 0 L 13.171875 -230.421875 L 38.84375 -230.421875 L 38.84375 -119.15625 L 100.0625 -230.421875 L 126.078125 -230.421875 L 67.8125 -125.421875 L 128.046875 0 L 101.71875 0 Z M 52.34375 -100.0625 "/></g></g></g></g></g><g transform="matrix(1, 0, 0, 1, 1050, 86)"><g clip-path="url(#df871a0d4c)"><g fill="#e6b85c" fill-opacity="1"><g transform="translate(0.437863, 245.838711)"><g><path d="M 63.4375 -230.078125 C 81.625 -230.078125 94.769531 -225.085938 102.875 -215.109375 C 110.976562 -205.140625 115.03125 -191.394531 115.03125 -173.875 L 115.03125 -146.265625 C 115.03125 -127.859375 110.703125 -114 102.046875 -104.6875 C 93.390625 -95.375 79.863281 -90.71875 61.46875 -90.71875 L 38.78125 -90.71875 L 38.78125 0 L 13.140625 0 L 13.140625 -230.078125 Z M 61.46875 -113.71875 C 71.101562 -113.71875 78.222656 -116.070312 82.828125 -120.78125 C 87.429688 -125.5 89.734375 -133.441406 89.734375 -144.609375 L 89.734375 -175.1875 C 89.734375 -185.695312 87.703125 -193.582031 83.640625 -198.84375 C 79.585938 -204.101562 72.851562 -206.734375 63.4375 -206.734375 L 38.78125 -206.734375 L 38.78125 -113.71875 Z M 61.46875 -113.71875 "/></g></g></g></g></g><g clip-path="url(#f45ddb72fb)"><g clip-path="url(#cfa520ee5c)"><g transform="matrix(1, 0, 0, 1, 828, 88)"><g clip-path="url(#57526996c5)"><g clip-path="url(#d49d62603d)"><g clip-path="url(#b28d34f821)"><path fill="#e6b85c" d="M 0.921875 0.0664062 L 205.632812 0.0664062 L 205.632812 245.558594 L 0.921875 245.558594 Z M 0.921875 0.0664062 " fill-opacity="1" fill-rule="nonzero"/></g></g></g></g></g></g><g clip-path="url(#31cd31be0d)"><g clip-path="url(#6f94cda8cf)"><g transform="matrix(1, 0, 0, 1, 828, 88)"><g clip-path="url(#aacf809d67)"><g clip-path="url(#abf167c421)"><g clip-path="url(#ca5e9560a4)"><path fill="#ffffff" d="M 0.921875 0.0664062 L 185.160156 0.0664062 L 185.160156 228.207031 L 0.921875 228.207031 Z M 0.921875 0.0664062 " fill-opacity="1" fill-rule="nonzero"/></g></g></g></g></g></g><g clip-path="url(#8d32fbd148)"><g clip-path="url(#7a85aaad32)"><g transform="matrix(1, 0, 0, 1, 828, 88)"><g clip-path="url(#1b22da756b)"><g clip-path="url(#45e8e80745)"><g clip-path="url(#64b416d2a1)"><path fill="#e6b85c" d="M 0.921875 0.0664062 L 164.6875 0.0664062 L 164.6875 212.453125 L 0.921875 212.453125 Z M 0.921875 0.0664062 " fill-opacity="1" fill-rule="nonzero"/></g></g></g></g></g></g><g clip-path="url(#409b9bcf5f)"><g clip-path="url(#30070c22df)"><g transform="matrix(1, 0, 0, 1, 828, 88)"><g clip-path="url(#f857d002d2)"><g clip-path="url(#80403c5799)"><g clip-path="url(#d3e8b55096)"><path fill="#ffffff" d="M 0.921875 0.0664062 L 144.21875 0.0664062 L 144.21875 199.898438 L 0.921875 199.898438 Z M 0.921875 0.0664062 " fill-opacity="1" fill-rule="nonzero"/></g></g></g></g></g></g><g clip-path="url(#a96f9bf255)"><g clip-path="url(#981120532a)"><g transform="matrix(1, 0, 0, 1, 934, 5)"><g clip-path="url(#caee1e625c)"><g clip-path="url(#9e969ccd99)"><g clip-path="url(#b4b0b2f065)"><path fill="#e6b85c" d="M -5.476562 -4.476562 L 143.308594 -4.476562 L 143.308594 78.6875 L -5.476562 78.6875 Z M -5.476562 -4.476562 " fill-opacity="1" fill-rule="nonzero"/></g></g></g></g></g></g><g clip-path="url(#50a8c96e14)"><g transform="matrix(1, 0, 0, 1, 830, 84)"><g clip-path="url(#f822b0b5a1)"><g clip-path="url(#783dadf1a7)"><path fill="#ffffff" d="M 0.25 36.265625 L 0.25 0.605469 L 140.929688 0.605469 L 140.929688 36.265625 Z M 0.25 36.265625 " fill-opacity="1" fill-rule="nonzero"/></g></g></g></g><g clip-path="url(#327b0069f4)"><g transform="matrix(1, 0, 0, 1, 992, 84)"><g clip-path="url(#40f69203ba)"><g clip-path="url(#2b29d1197e)"><path fill="#ffffff" d="M 21.148438 43.617188 L 0.675781 43.617188 L 0.675781 0.597656 L 21.148438 0.597656 Z M 21.148438 43.617188 " fill-opacity="1" fill-rule="nonzero"/></g></g></g></g><g clip-path="url(#aa0f725bd1)"><g transform="matrix(1, 0, 0, 1, 929, 83)"><g clip-path="url(#3c0d914554)"><g clip-path="url(#32aeab3cfd)"><path fill="#ffffff" d="M 0.0546875 5.058594 L 0.0546875 0.679688 L 140.679688 0.679688 L 140.679688 5.058594 Z M 0.0546875 5.058594 " fill-opacity="1" fill-rule="nonzero"/></g></g></g></g><g clip-path="url(#c96da8db0f)"><g transform="matrix(1, 0, 0, 1, 819, 35)"><g clip-path="url(#ef99cebc58)"><g clip-path="url(#4540e62fd5)"><path fill="#ffffff" d="M 36.648438 178.480469 L 0.988281 178.480469 L 0.988281 0.0507812 L 36.648438 0.0507812 Z M 36.648438 178.480469 " fill-opacity="1" fill-rule="nonzero"/></g></g></g></g></g></g></svg>