<svg xmlns="http://www.w3.org/2000/svg" xmlns:xlink="http://www.w3.org/1999/xlink" width="2000" zoomAndPan="magnify" viewBox="0 0 1500 1499.999933" height="2000" preserveAspectRatio="xMidYMid meet" version="1.0"><defs><clipPath id="01192c1cd6"><path d="M 75 0 L 1425 0 C 1466.421875 0 1500 33.578125 1500 75 L 1500 1425 C 1500 1466.421875 1466.421875 1500 1425 1500 L 75 1500 C 33.578125 1500 0 1466.421875 0 1425 L 0 75 C 0 33.578125 33.578125 0 75 0 Z M 75 0 " clip-rule="nonzero"/></clipPath><clipPath id="5bd48f640c"><path d="M 0 0 L 1500 0 L 1500 1500 L 0 1500 Z M 0 0 " clip-rule="nonzero"/></clipPath><clipPath id="ed3fffea01"><path d="M 75 0 L 1425 0 C 1466.421875 0 1500 33.578125 1500 75 L 1500 1425 C 1500 1466.421875 1466.421875 1500 1425 1500 L 75 1500 C 33.578125 1500 0 1466.421875 0 1425 L 0 75 C 0 33.578125 33.578125 0 75 0 Z M 75 0 " clip-rule="nonzero"/></clipPath><clipPath id="e9f08c2857"><rect x="0" width="1500" y="0" height="1500"/></clipPath><clipPath id="7c069bea46"><path d="M 585.078125 331.808594 L 1237.773438 331.808594 L 1237.773438 1116 L 585.078125 1116 Z M 585.078125 331.808594 " clip-rule="nonzero"/></clipPath><clipPath id="0156146dbf"><path d="M 802.761719 1096.667969 C 836.222656 1107.761719 874.265625 1115.042969 911.601562 1115.042969 C 948.9375 1115.042969 984.867188 1108.800781 1017.976562 1097.707031 C 1018.683594 1097.359375 1019.386719 1097.359375 1020.089844 1097.015625 C 1144.429688 1052.632812 1236.011719 935.445312 1237.773438 798.488281 L 1237.773438 331.808594 L 585.078125 331.808594 L 585.078125 798.144531 C 586.839844 936.136719 677.011719 1053.328125 802.761719 1096.667969 Z M 802.761719 1096.667969 " clip-rule="nonzero"/></clipPath><clipPath id="c4ce720683"><path d="M 0.078125 0.808594 L 652.773438 0.808594 L 652.773438 784 L 0.078125 784 Z M 0.078125 0.808594 " clip-rule="nonzero"/></clipPath><clipPath id="9d08279cbd"><path d="M 217.761719 765.667969 C 251.222656 776.761719 289.265625 784.042969 326.601562 784.042969 C 363.9375 784.042969 399.867188 777.800781 432.976562 766.707031 C 433.683594 766.359375 434.386719 766.359375 435.089844 766.015625 C 559.429688 721.632812 651.011719 604.445312 652.773438 467.488281 L 652.773438 0.808594 L 0.078125 0.808594 L 0.078125 467.144531 C 1.839844 605.136719 92.011719 722.328125 217.761719 765.667969 Z M 217.761719 765.667969 " clip-rule="nonzero"/></clipPath><clipPath id="236be4965c"><rect x="0" width="653" y="0" height="785"/></clipPath><clipPath id="66865d1b25"><path d="M 585.078125 331.808594 L 1172.503906 331.808594 L 1172.503906 1061 L 585.078125 1061 Z M 585.078125 331.808594 " clip-rule="nonzero"/></clipPath><clipPath id="671cb0b980"><path d="M 780.992188 1043.226562 C 811.109375 1053.546875 845.347656 1060.320312 878.949219 1060.320312 C 912.554688 1060.320312 944.890625 1054.515625 974.6875 1044.195312 C 975.320312 1043.871094 975.957031 1043.871094 976.589844 1043.550781 C 1088.496094 1002.269531 1170.917969 893.269531 1172.503906 765.882812 L 1172.503906 331.808594 L 585.078125 331.808594 L 585.078125 765.5625 C 586.664062 893.914062 667.820312 1002.914062 780.992188 1043.226562 Z M 780.992188 1043.226562 " clip-rule="nonzero"/></clipPath><clipPath id="085f8a1c99"><path d="M 0.078125 0.808594 L 587.503906 0.808594 L 587.503906 729 L 0.078125 729 Z M 0.078125 0.808594 " clip-rule="nonzero"/></clipPath><clipPath id="04ece05281"><path d="M 195.992188 712.226562 C 226.109375 722.546875 260.347656 729.320312 293.949219 729.320312 C 327.554688 729.320312 359.890625 723.515625 389.6875 713.195312 C 390.320312 712.871094 390.957031 712.871094 391.589844 712.550781 C 503.496094 671.269531 585.917969 562.269531 587.503906 434.882812 L 587.503906 0.808594 L 0.078125 0.808594 L 0.078125 434.5625 C 1.664062 562.914062 82.820312 671.914062 195.992188 712.226562 Z M 195.992188 712.226562 " clip-rule="nonzero"/></clipPath><clipPath id="cc63d8dedc"><rect x="0" width="588" y="0" height="730"/></clipPath><clipPath id="fad3be96c6"><path d="M 585.078125 331.808594 L 1107.234375 331.808594 L 1107.234375 1010 L 585.078125 1010 Z M 585.078125 331.808594 " clip-rule="nonzero"/></clipPath><clipPath id="2630395e3f"><path d="M 759.222656 993.980469 C 785.992188 1003.585938 816.425781 1009.886719 846.296875 1009.886719 C 876.167969 1009.886719 904.910156 1004.484375 931.398438 994.878906 C 931.960938 994.578125 932.523438 994.578125 933.089844 994.277344 C 1032.558594 955.855469 1105.824219 854.402344 1107.234375 735.835938 L 1107.234375 331.808594 L 585.078125 331.808594 L 585.078125 735.535156 C 586.488281 855 658.625 956.457031 759.222656 993.980469 Z M 759.222656 993.980469 " clip-rule="nonzero"/></clipPath><clipPath id="98347991ea"><path d="M 0.078125 0.808594 L 522.234375 0.808594 L 522.234375 678 L 0.078125 678 Z M 0.078125 0.808594 " clip-rule="nonzero"/></clipPath><clipPath id="44b8d2e430"><path d="M 174.222656 662.980469 C 200.992188 672.585938 231.425781 678.886719 261.296875 678.886719 C 291.167969 678.886719 319.910156 673.484375 346.398438 663.878906 C 346.960938 663.578125 347.523438 663.578125 348.089844 663.277344 C 447.558594 624.855469 520.824219 523.402344 522.234375 404.835938 L 522.234375 0.808594 L 0.078125 0.808594 L 0.078125 404.535156 C 1.488281 524 73.625 625.457031 174.222656 662.980469 Z M 174.222656 662.980469 " clip-rule="nonzero"/></clipPath><clipPath id="c34a8c9965"><rect x="0" width="523" y="0" height="679"/></clipPath><clipPath id="5d5543ab77"><path d="M 585.078125 331.808594 L 1041.964844 331.808594 L 1041.964844 968.953125 L 585.078125 968.953125 Z M 585.078125 331.808594 " clip-rule="nonzero"/></clipPath><clipPath id="51303c90fd"><path d="M 737.457031 953.953125 C 760.878906 962.976562 787.507812 968.898438 813.644531 968.898438 C 839.78125 968.898438 864.929688 963.820312 888.105469 954.796875 C 888.601562 954.515625 889.09375 954.515625 889.585938 954.234375 C 976.625 918.132812 1040.730469 822.8125 1041.964844 711.410156 L 1041.964844 331.808594 L 585.078125 331.808594 L 585.078125 711.128906 C 586.3125 823.375 649.433594 918.699219 737.457031 953.953125 Z M 737.457031 953.953125 " clip-rule="nonzero"/></clipPath><clipPath id="fcd3014a73"><path d="M 0.078125 0.808594 L 456.964844 0.808594 L 456.964844 637.953125 L 0.078125 637.953125 Z M 0.078125 0.808594 " clip-rule="nonzero"/></clipPath><clipPath id="6774575dbd"><path d="M 152.457031 622.953125 C 175.878906 631.976562 202.507812 637.898438 228.644531 637.898438 C 254.78125 637.898438 279.929688 632.820312 303.105469 623.796875 C 303.601562 623.515625 304.09375 623.515625 304.585938 623.234375 C 391.625 587.132812 455.730469 491.8125 456.964844 380.410156 L 456.964844 0.808594 L 0.078125 0.808594 L 0.078125 380.128906 C 1.3125 492.375 64.433594 587.699219 152.457031 622.953125 Z M 152.457031 622.953125 " clip-rule="nonzero"/></clipPath><clipPath id="9b0dbb4a1b"><rect x="0" width="457" y="0" height="638"/></clipPath><clipPath id="c25a7dbdbb"><path d="M 10.625 94.417969 L 1082.957031 94.417969 L 1082.957031 258.40625 L 10.625 258.40625 Z M 10.625 94.417969 " clip-rule="nonzero"/></clipPath><clipPath id="e23d561d6f"><path d="M 212.683594 94.417969 L 1076.957031 94.417969 C 1079.480469 94.417969 1081.734375 95.996094 1082.59375 98.367188 C 1083.457031 100.738281 1082.742188 103.394531 1080.808594 105.011719 L 910.300781 247.8125 C 902.128906 254.65625 891.808594 258.40625 881.148438 258.40625 L 16.875 258.40625 C 14.351562 258.40625 12.101562 256.832031 11.238281 254.460938 C 10.378906 252.089844 11.089844 249.433594 13.023438 247.8125 L 183.535156 105.011719 C 191.707031 98.167969 202.023438 94.417969 212.683594 94.417969 Z M 212.683594 94.417969 " clip-rule="nonzero"/></clipPath><clipPath id="a0a463c8b6"><path d="M 0.625 0.417969 L 1072.957031 0.417969 L 1072.957031 164.40625 L 0.625 164.40625 Z M 0.625 0.417969 " clip-rule="nonzero"/></clipPath><clipPath id="a82c43f879"><path d="M 202.683594 0.417969 L 1066.957031 0.417969 C 1069.480469 0.417969 1071.734375 1.996094 1072.59375 4.367188 C 1073.457031 6.738281 1072.742188 9.394531 1070.808594 11.011719 L 900.300781 153.8125 C 892.128906 160.65625 881.808594 164.40625 871.148438 164.40625 L 6.875 164.40625 C 4.351562 164.40625 2.101562 162.832031 1.238281 160.460938 C 0.378906 158.089844 1.089844 155.433594 3.023438 153.8125 L 173.535156 11.011719 C 181.707031 4.167969 192.023438 0.417969 202.683594 0.417969 Z M 202.683594 0.417969 " clip-rule="nonzero"/></clipPath><clipPath id="30f363e532"><rect x="0" width="1073" y="0" height="165"/></clipPath><clipPath id="fc229e7900"><path d="M 347.308594 195.125 L 579.222656 195.125 L 579.222656 1130.933594 L 347.308594 1130.933594 Z M 347.308594 195.125 " clip-rule="nonzero"/></clipPath><clipPath id="838ddb3009"><path d="M 358.558594 195.125 L 567.972656 195.125 C 570.957031 195.125 573.816406 196.308594 575.925781 198.417969 C 578.039062 200.53125 579.222656 203.390625 579.222656 206.375 L 579.222656 1119.566406 C 579.222656 1122.550781 578.039062 1125.410156 575.925781 1127.519531 C 573.816406 1129.632812 570.957031 1130.816406 567.972656 1130.816406 L 358.558594 1130.816406 C 355.574219 1130.816406 352.714844 1129.632812 350.605469 1127.519531 C 348.492188 1125.410156 347.308594 1122.550781 347.308594 1119.566406 L 347.308594 206.375 C 347.308594 203.390625 348.492188 200.53125 350.605469 198.417969 C 352.714844 196.308594 355.574219 195.125 358.558594 195.125 Z M 358.558594 195.125 " clip-rule="nonzero"/></clipPath><clipPath id="26da984d76"><path d="M 0.308594 0.125 L 232.222656 0.125 L 232.222656 935.933594 L 0.308594 935.933594 Z M 0.308594 0.125 " clip-rule="nonzero"/></clipPath><clipPath id="eb73ff5207"><path d="M 11.558594 0.125 L 220.972656 0.125 C 223.957031 0.125 226.816406 1.308594 228.925781 3.417969 C 231.039062 5.53125 232.222656 8.390625 232.222656 11.375 L 232.222656 924.566406 C 232.222656 927.550781 231.039062 930.410156 228.925781 932.519531 C 226.816406 934.632812 223.957031 935.816406 220.972656 935.816406 L 11.558594 935.816406 C 8.574219 935.816406 5.714844 934.632812 3.605469 932.519531 C 1.492188 930.410156 0.308594 927.550781 0.308594 924.566406 L 0.308594 11.375 C 0.308594 8.390625 1.492188 5.53125 3.605469 3.417969 C 5.714844 1.308594 8.574219 0.125 11.558594 0.125 Z M 11.558594 0.125 " clip-rule="nonzero"/></clipPath><clipPath id="00abdf97ca"><rect x="0" width="233" y="0" height="936"/></clipPath><clipPath id="637fd8ed61"><path d="M 908.863281 57 L 1371 57 L 1371 317.84375 L 908.863281 317.84375 Z M 908.863281 57 " clip-rule="nonzero"/></clipPath><clipPath id="dabd28517e"><path d="M 1147.371094 61.074219 L 1369.589844 309.460938 C 1370.914062 310.9375 1371.242188 313.058594 1370.433594 314.867188 C 1369.625 316.679688 1367.824219 317.84375 1365.839844 317.84375 L 913.898438 317.84375 C 911.914062 317.84375 910.113281 316.679688 909.304688 314.867188 C 908.496094 313.058594 908.824219 310.9375 910.148438 309.460938 L 1132.367188 61.074219 C 1134.277344 58.9375 1137.003906 57.71875 1139.867188 57.71875 C 1142.734375 57.71875 1145.460938 58.9375 1147.371094 61.074219 Z M 1147.371094 61.074219 " clip-rule="nonzero"/></clipPath><clipPath id="342c1f179b"><path d="M 0.863281 0.679688 L 463 0.679688 L 463 260.84375 L 0.863281 260.84375 Z M 0.863281 0.679688 " clip-rule="nonzero"/></clipPath><clipPath id="2847ac6e53"><path d="M 239.371094 4.074219 L 461.589844 252.460938 C 462.914062 253.9375 463.242188 256.058594 462.433594 257.867188 C 461.625 259.679688 459.824219 260.84375 457.839844 260.84375 L 5.898438 260.84375 C 3.914062 260.84375 2.113281 259.679688 1.304688 257.867188 C 0.496094 256.058594 0.824219 253.9375 2.148438 252.460938 L 224.367188 4.074219 C 226.277344 1.9375 229.003906 0.71875 231.867188 0.71875 C 234.734375 0.71875 237.460938 1.9375 239.371094 4.074219 Z M 239.371094 4.074219 " clip-rule="nonzero"/></clipPath><clipPath id="8b87f2fff7"><rect x="0" width="463" y="0" height="261"/></clipPath><clipPath id="ce52e95bcf"><path d="M 579.222656 275.078125 L 692.914062 275.078125 L 692.914062 723.425781 L 579.222656 723.425781 Z M 579.222656 275.078125 " clip-rule="nonzero"/></clipPath><clipPath id="941ce15843"><path d="M 0.222656 0.078125 L 113.914062 0.078125 L 113.914062 448.425781 L 0.222656 448.425781 Z M 0.222656 0.078125 " clip-rule="nonzero"/></clipPath><clipPath id="255f1074fc"><rect x="0" width="114" y="0" height="449"/></clipPath><clipPath id="2254cf7682"><path d="M 589.34375 320.796875 L 1037.691406 320.796875 L 1037.691406 434.488281 L 589.34375 434.488281 Z M 589.34375 320.796875 " clip-rule="nonzero"/></clipPath><clipPath id="22f7231ff8"><path d="M 0.34375 0.796875 L 448.691406 0.796875 L 448.691406 114.488281 L 0.34375 114.488281 Z M 0.34375 0.796875 " clip-rule="nonzero"/></clipPath><clipPath id="8c2a9854ea"><rect x="0" width="449" y="0" height="115"/></clipPath><clipPath id="4e32b6a62d"><path d="M 1107.226562 320.789062 L 1172.496094 320.789062 L 1172.496094 457.933594 L 1107.226562 457.933594 Z M 1107.226562 320.789062 " clip-rule="nonzero"/></clipPath><clipPath id="62b07c9dcc"><path d="M 0.226562 0.789062 L 65.496094 0.789062 L 65.496094 137.933594 L 0.226562 137.933594 Z M 0.226562 0.789062 " clip-rule="nonzero"/></clipPath><clipPath id="dab8dc29f5"><rect x="0" width="66" y="0" height="138"/></clipPath><clipPath id="0350971359"><path d="M 803 1 L 1129 1 L 1129 351 L 803 351 Z M 803 1 " clip-rule="nonzero"/></clipPath><clipPath id="a28460dc9b"><path d="M 866.859375 350.074219 L 803.914062 293.78125 L 1065.59375 1.179688 L 1128.539062 57.472656 Z M 866.859375 350.074219 " clip-rule="nonzero"/></clipPath><clipPath id="02a2d0e5d9"><path d="M 0.761719 0.0390625 L 325.71875 0.0390625 L 325.71875 349.238281 L 0.761719 349.238281 Z M 0.761719 0.0390625 " clip-rule="nonzero"/></clipPath><clipPath id="c44ec52a04"><path d="M 63.859375 349.074219 L 0.914062 292.78125 L 262.59375 0.179688 L 325.539062 56.472656 Z M 63.859375 349.074219 " clip-rule="nonzero"/></clipPath><clipPath id="1379ac31eb"><rect x="0" width="326" y="0" height="350"/></clipPath><clipPath id="422c13a98c"><path d="M 904.363281 317.832031 L 1352.710938 317.832031 L 1352.710938 331.792969 L 904.363281 331.792969 Z M 904.363281 317.832031 " clip-rule="nonzero"/></clipPath><clipPath id="2f47fe7b95"><path d="M 0.363281 0.832031 L 448.710938 0.832031 L 448.710938 14.792969 L 0.363281 14.792969 Z M 0.363281 0.832031 " clip-rule="nonzero"/></clipPath><clipPath id="7ceb85ef6f"><rect x="0" width="449" y="0" height="15"/></clipPath><clipPath id="da4c006262"><path d="M 295.113281 258.394531 L 743.460938 258.394531 L 743.460938 272.355469 L 295.113281 272.355469 Z M 295.113281 258.394531 " clip-rule="nonzero"/></clipPath><clipPath id="0e065ba86a"><path d="M 0.113281 0.394531 L 448.460938 0.394531 L 448.460938 14.355469 L 0.113281 14.355469 Z M 0.113281 0.394531 " clip-rule="nonzero"/></clipPath><clipPath id="784c4c9db6"><rect x="0" width="449" y="0" height="15"/></clipPath><clipPath id="cf1063c30d"><rect x="0" width="1379" y="0" height="1131"/></clipPath></defs><g clip-path="url(#01192c1cd6)"><g transform="matrix(1, 0, 0, 1, 0, 0.000000000000112861)"><g clip-path="url(#e9f08c2857)"><g clip-path="url(#5bd48f640c)"><g clip-path="url(#ed3fffea01)"><rect x="-330" width="2160" fill="#ffffff" height="2159.999904" y="-329.999985" fill-opacity="1"/></g></g></g></g><path stroke-linecap="butt" transform="matrix(0.75, 0, 0, 0.75, 0.00003335, -0.00002)" fill="none" stroke-linejoin="miter" d="M 99.999971 0.0000266667 L 1900.000241 0.0000266667 C 1955.229416 0.0000266667 2000.000256 44.770867 2000.000256 100.000042 L 2000.000256 1900.000312 C 2000.000256 1955.229487 1955.229416 2000.000327 1900.000241 2000.000327 L 99.999971 2000.000327 C 44.770796 2000.000327 -0.0000444667 1955.229487 -0.0000444667 1900.000312 L -0.0000444667 100.000042 C -0.0000444667 44.770867 44.770796 0.0000266667 99.999971 0.0000266667 Z M 99.999971 0.0000266667 " stroke="#2d3a8c" stroke-width="80" stroke-opacity="1" stroke-miterlimit="4"/></g><g transform="matrix(1, 0, 0, 1, 36, 184)"><g clip-path="url(#cf1063c30d)"><g clip-path="url(#7c069bea46)"><g clip-path="url(#0156146dbf)"><g transform="matrix(1, 0, 0, 1, 585, 331)"><g clip-path="url(#236be4965c)"><g clip-path="url(#c4ce720683)"><g clip-path="url(#9d08279cbd)"><path fill="#e6b85c" d="M 0.078125 0.808594 L 652.773438 0.808594 L 652.773438 783.53125 L 0.078125 783.53125 Z M 0.078125 0.808594 " fill-opacity="1" fill-rule="nonzero"/></g></g></g></g></g></g><g clip-path="url(#66865d1b25)"><g clip-path="url(#671cb0b980)"><g transform="matrix(1, 0, 0, 1, 585, 331)"><g clip-path="url(#cc63d8dedc)"><g clip-path="url(#085f8a1c99)"><g clip-path="url(#04ece05281)"><path fill="#ffffff" d="M 0.078125 0.808594 L 587.503906 0.808594 L 587.503906 728.207031 L 0.078125 728.207031 Z M 0.078125 0.808594 " fill-opacity="1" fill-rule="nonzero"/></g></g></g></g></g></g><g clip-path="url(#fad3be96c6)"><g clip-path="url(#2630395e3f)"><g transform="matrix(1, 0, 0, 1, 585, 331)"><g clip-path="url(#c34a8c9965)"><g clip-path="url(#98347991ea)"><g clip-path="url(#44b8d2e430)"><path fill="#e6b85c" d="M 0.078125 0.808594 L 522.234375 0.808594 L 522.234375 677.980469 L 0.078125 677.980469 Z M 0.078125 0.808594 " fill-opacity="1" fill-rule="nonzero"/></g></g></g></g></g></g><g clip-path="url(#5d5543ab77)"><g clip-path="url(#51303c90fd)"><g transform="matrix(1, 0, 0, 1, 585, 331)"><g clip-path="url(#9b0dbb4a1b)"><g clip-path="url(#fcd3014a73)"><g clip-path="url(#6774575dbd)"><path fill="#ffffff" d="M 0.078125 0.808594 L 456.964844 0.808594 L 456.964844 637.953125 L 0.078125 637.953125 Z M 0.078125 0.808594 " fill-opacity="1" fill-rule="nonzero"/></g></g></g></g></g></g><g clip-path="url(#c25a7dbdbb)"><g clip-path="url(#e23d561d6f)"><g transform="matrix(1, 0, 0, 1, 10, 94)"><g clip-path="url(#30f363e532)"><g clip-path="url(#a0a463c8b6)"><g clip-path="url(#a82c43f879)"><path fill="#2d3a8c" d="M -9.625 0.417969 L 1083.207031 0.417969 L 1083.207031 164.40625 L -9.625 164.40625 Z M -9.625 0.417969 " fill-opacity="1" fill-rule="nonzero"/></g></g></g></g></g></g><g clip-path="url(#fc229e7900)"><g clip-path="url(#838ddb3009)"><g transform="matrix(1, 0, 0, 1, 347, 195)"><g clip-path="url(#00abdf97ca)"><g clip-path="url(#26da984d76)"><g clip-path="url(#eb73ff5207)"><path fill="#2d3a8c" d="M 0.308594 0.125 L 232.222656 0.125 L 232.222656 935.933594 L 0.308594 935.933594 Z M 0.308594 0.125 " fill-opacity="1" fill-rule="nonzero"/></g></g></g></g></g></g><g clip-path="url(#637fd8ed61)"><g clip-path="url(#dabd28517e)"><g transform="matrix(1, 0, 0, 1, 908, 57)"><g clip-path="url(#8b87f2fff7)"><g clip-path="url(#342c1f179b)"><g clip-path="url(#2847ac6e53)"><path fill="#e6b85c" d="M -5.351562 -4.3125 L 469.027344 -4.3125 L 469.027344 260.84375 L -5.351562 260.84375 Z M -5.351562 -4.3125 " fill-opacity="1" fill-rule="nonzero"/></g></g></g></g></g></g><g clip-path="url(#ce52e95bcf)"><g transform="matrix(1, 0, 0, 1, 579, 275)"><g clip-path="url(#255f1074fc)"><g clip-path="url(#941ce15843)"><path fill="#ffffff" d="M 0.222656 0.078125 L 113.914062 0.078125 L 113.914062 448.621094 L 0.222656 448.621094 Z M 0.222656 0.078125 " fill-opacity="1" fill-rule="nonzero"/></g></g></g></g><g clip-path="url(#2254cf7682)"><g transform="matrix(1, 0, 0, 1, 589, 320)"><g clip-path="url(#8c2a9854ea)"><g clip-path="url(#22f7231ff8)"><path fill="#ffffff" d="M 0.34375 114.488281 L 0.34375 0.796875 L 448.886719 0.796875 L 448.886719 114.488281 Z M 0.34375 114.488281 " fill-opacity="1" fill-rule="nonzero"/></g></g></g></g><g clip-path="url(#4e32b6a62d)"><g transform="matrix(1, 0, 0, 1, 1107, 320)"><g clip-path="url(#dab8dc29f5)"><g clip-path="url(#62b07c9dcc)"><path fill="#ffffff" d="M 65.496094 137.933594 L 0.226562 137.933594 L 0.226562 0.765625 L 65.496094 0.765625 Z M 65.496094 137.933594 " fill-opacity="1" fill-rule="nonzero"/></g></g></g></g><g clip-path="url(#0350971359)"><g clip-path="url(#a28460dc9b)"><g transform="matrix(1, 0, 0, 1, 803, 1)"><g clip-path="url(#1379ac31eb)"><g clip-path="url(#02a2d0e5d9)"><g clip-path="url(#c44ec52a04)"><path fill="#ffffff" d="M 63.859375 349.074219 L 0.914062 292.78125 L 262.589844 0.1875 L 325.53125 56.480469 Z M 63.859375 349.074219 " fill-opacity="1" fill-rule="nonzero"/></g></g></g></g></g></g><g clip-path="url(#422c13a98c)"><g transform="matrix(1, 0, 0, 1, 904, 317)"><g clip-path="url(#7ceb85ef6f)"><g clip-path="url(#2f47fe7b95)"><path fill="#ffffff" d="M 0.363281 14.792969 L 0.363281 0.832031 L 448.722656 0.832031 L 448.722656 14.792969 Z M 0.363281 14.792969 " fill-opacity="1" fill-rule="nonzero"/></g></g></g></g><g clip-path="url(#da4c006262)"><g transform="matrix(1, 0, 0, 1, 295, 258)"><g clip-path="url(#784c4c9db6)"><g clip-path="url(#0e065ba86a)"><path fill="#ffffff" d="M 0.113281 14.355469 L 0.113281 0.394531 L 448.472656 0.394531 L 448.472656 14.355469 Z M 0.113281 14.355469 " fill-opacity="1" fill-rule="nonzero"/></g></g></g></g></g></g></svg>